<svg width="128" height="128" viewBox="0 0 128 128" fill="none" xmlns="http://www.w3.org/2000/svg">
<path d="M109 18H18V109H109V18Z" fill="#FF4A19"/>
<path d="M101 26H25V101H101V26Z" fill="#260600"/>
<path fill-rule="evenodd" clip-rule="evenodd" d="M57.1109 74.3408L60.0783 84.2583C60.2323 84.8441 60.5343 84.9876 60.943 84.9816H68.5422C69.1286 84.9816 69.17 84.8083 69.0812 84.4137L56.5304 42.1614C56.5067 42.0837 56.4475 42.0239 56.329 42.0299L45.8039 42C45.3893 42 45.3834 42.2152 45.4189 42.6217C45.5492 44.0923 45.4782 44.9173 45.1702 46.071L34.0587 84.4317C33.9402 84.7963 33.9698 84.9816 34.4437 84.9876L41.6164 84.9816C42.3745 84.9517 42.416 84.7485 42.5463 84.3659L45.0339 74.3408H57.1109ZM55.5768 66.6293H46.8641L51.0872 49.3888L55.5768 66.6293ZM71.2786 84.6289V84.3121V84.2463V83.3676L71.3319 60.5556L71.2964 59.7426L71.2786 59.2943L71.018 58.0269C71.0713 58.003 71.1246 57.9851 71.1779 57.9612C71.2786 57.9253 71.3793 57.8895 71.48 57.8476C80.323 54.5537 93.4838 53.2446 92.9863 66.3782C92.9804 66.4559 92.9863 66.5994 92.9804 66.6771V82.9192V84.1985V84.3181C92.9626 84.7066 92.7494 84.9936 92.2222 84.9996H92.1038H87.2469C86.8205 85.0055 86.4533 84.9577 86.4414 84.342C86.4414 84.336 86.4414 84.336 86.4414 84.33C86.4414 84.0431 86.4414 83.6784 86.4414 83.248C86.4414 78.4537 86.4473 65.4217 86.4355 65.1826C86.2874 60.998 81.0041 60.5317 77.7169 61.8887L77.6162 83.4393V84.342C77.6043 84.7425 77.5629 84.9876 76.8581 84.9936H71.7228C71.4859 84.9936 71.2668 84.9996 71.2786 84.6289Z" fill="#FF4A19"/>
</svg>
