<svg width="128" height="128" viewBox="0 0 128 128" fill="none" xmlns="http://www.w3.org/2000/svg">
<path d="M73.3823 65.303C71.6832 64.7439 69.2371 64.864 66.0441 64.864H53.216V81.608H66.9344C69.0777 81.608 70.5832 81.3787 71.4502 81.2185C72.9783 80.9448 74.2559 80.4148 75.2824 79.7756C76.3082 79.1379 77.1519 78.1704 77.8144 76.9503C78.4754 75.7301 78.8067 74.3025 78.8067 72.706C78.8067 70.8365 78.3276 69.4009 77.3689 68.0206C76.4108 66.6403 75.0822 65.8621 73.3823 65.303V65.303ZM71.6213 57.6473C73.3081 57.1465 74.5799 56.2714 75.4353 55.1088C76.2914 53.9455 76.7187 52.4654 76.7187 50.7088C76.7187 49.0446 76.3191 47.5682 75.5205 46.3015C74.7218 45.0347 73.5825 44.5448 72.0996 44.0767C70.6167 43.61 68.0738 43.752 64.4702 43.752H53.216V58.312H65.2913C68.2339 58.312 70.3429 58.0354 71.6213 57.6473V57.6473ZM110 31.103C110 24.4185 104.581 19 97.897 19H31.103C24.4185 19 19 24.4185 19 31.103V97.897C19 104.581 24.4185 110 31.103 110H97.897C104.581 110 110 104.581 110 97.897V31.103ZM84.1946 79.2384C83.203 81.2571 81.9764 82.8136 80.5167 83.9085C79.0564 85.0034 77.2254 85.9323 75.0247 86.4914C72.8247 87.0513 70.1267 87.432 66.9344 87.432H46.664V37.2H66.6258C70.4579 37.2 73.5308 37.6434 75.8459 38.6575C78.1616 39.673 79.9744 41.2033 81.2869 43.313C82.5981 45.4228 83.254 47.6133 83.254 49.9167C83.254 52.0607 82.6716 54.0721 81.509 55.9649C80.3456 57.8592 78.589 59.3822 76.2405 60.5455C79.2733 61.4351 81.6058 62.9508 83.2365 65.094C84.8673 67.238 85.6826 69.7693 85.6826 72.6885C85.6826 75.0378 85.1868 77.2203 84.1946 79.2384V79.2384Z" fill="#5B4282"/>
</svg>
