<svg width="128" height="128" viewBox="0 0 128 128" fill="none" xmlns="http://www.w3.org/2000/svg">
<path d="M63.5 108C88.0767 108 108 88.0767 108 63.5C108 38.9233 88.0767 19 63.5 19C38.9233 19 19 38.9233 19 63.5C19 88.0767 38.9233 108 63.5 108Z" fill="#20C4CB"/>
<path d="M75.4741 71.1974C73.6446 73.2237 71.0833 74.2368 69.8941 74.2368C68.522 74.2368 67.7902 73.4079 67.6072 72.1184C67.5158 71.6579 67.6072 71.1053 67.6987 70.6447C68.1561 67.7895 69.1623 65.9474 69.1623 65.4868C69.1623 65.3026 69.0709 65.2105 68.9794 65.2105C68.0646 65.2105 64.9545 68.4342 64.4971 70.5526L64.1312 72.3026C63.8568 73.5 62.7591 74.2368 61.9358 74.2368C61.5699 74.2368 61.2954 74.0526 61.204 73.5921C61.204 73.4079 61.204 73.2237 61.204 73.0395L61.3869 72.1184C59.7404 73.4079 57.9109 74.2368 57.0876 74.2368C55.8984 74.2368 55.2581 73.5921 55.0751 72.6711C54.3433 73.6842 53.3371 74.2368 52.2394 74.2368C50.8673 74.2368 49.5866 73.3158 48.9463 71.9342C48.0315 72.9474 46.9338 73.9605 45.6532 74.7895C43.7322 75.9868 41.6283 77 39.1584 77C36.8715 77 34.8591 75.8026 33.8528 74.7895C32.2063 73.3158 31.383 71.0132 31.1086 68.9868C30.2853 62.5395 34.2187 53.9737 40.3476 50.2895C41.7197 49.4605 43.2748 49 44.7384 49C47.6656 49 49.861 51.1184 50.1355 53.6053C50.4099 55.9079 49.4951 57.8421 47.0253 59.0395C45.7446 59.6842 45.1043 59.6842 44.9214 59.3158C44.8299 59.1316 44.8299 58.7632 45.1043 58.5789C47.4827 56.6447 47.4827 54.9868 47.2082 52.6842C47.0253 51.2105 46.1105 50.2895 45.0128 50.2895C40.2561 50.2895 33.6699 60.6974 34.5847 68.25C34.9506 71.1974 36.7801 74.6053 40.4391 74.6053C41.6283 74.6053 43.0004 74.2368 44.0981 73.6842C46.1105 72.6711 47.2997 71.8421 48.3974 70.4605C48.123 66.9605 51.1417 62.5395 55.5325 62.5395C57.4535 62.5395 59.0086 63.2763 59.1915 64.8421C59.4659 66.7763 57.8194 67.1447 57.1791 67.1447C56.6302 67.1447 55.8069 66.9605 55.7155 66.5C55.624 65.9474 56.9046 66.2237 56.7217 65.0263C56.6302 64.2895 55.8069 64.0132 55.0751 64.0132C52.3309 64.0132 50.7758 67.8816 51.0502 70.2763C51.1417 71.3816 51.782 72.4868 52.6968 72.4868C53.52 72.4868 54.7092 71.2895 55.0751 69.6316C55.3496 68.4342 56.4473 67.6974 57.2705 67.6974C57.7279 67.6974 58.0023 67.8816 58.0023 68.3421C58.0023 68.5263 58.0023 68.7105 58.0023 68.8947C57.9109 69.3553 57.545 71.1053 57.545 71.3816C57.545 71.6579 57.7279 72.1184 58.2768 72.1184C58.7341 72.1184 60.1977 71.2895 61.6614 70C62.1187 67.6974 62.6676 64.8421 62.6676 64.6579C62.8505 63.7368 63.2164 62.7237 65.0459 62.7237C65.4118 62.7237 65.6863 62.9079 65.7777 63.3684C65.7777 63.5526 65.7777 63.7368 65.7777 63.9211L65.3204 66.4079C66.9669 64.1974 69.5282 62.5395 71.0833 62.5395C71.7236 62.5395 72.2725 62.9079 72.364 63.5526C72.4554 63.9211 72.2725 64.5658 72.0895 65.3026C71.5407 66.7763 70.9004 69.0789 70.5345 71.0132C70.443 71.4737 70.6259 72.0263 71.3577 72.0263C71.9981 72.0263 73.919 71.2895 75.4741 69.1711C75.4741 68.8947 75.4741 68.6184 75.4741 68.25C75.4741 66.5921 75.5656 65.3026 75.9315 64.2895C76.2059 63.2763 77.4866 62.3553 78.3099 62.3553C78.7672 62.3553 79.0417 62.6316 79.0417 63.0921C79.0417 63.2763 79.0417 63.4605 78.9502 63.6447C78.4013 65.3947 78.0354 66.9605 78.0354 68.5263C78.0354 69.4474 78.2184 70.8289 78.4013 71.5658C78.4013 71.75 78.4928 71.8421 78.6758 71.8421C78.9502 71.8421 80.7797 70.0921 82.0604 67.8816C80.8712 67.1447 80.2308 65.7632 80.2308 64.1053C80.2308 61.3421 81.8774 59.8684 83.524 59.8684C84.8046 59.8684 85.9023 60.7895 85.9023 62.6316C85.9023 63.8289 85.4449 65.1184 84.8046 66.4079C84.8046 66.4079 85.079 66.4079 85.1705 66.4079C86.1767 66.4079 86.9085 65.9474 87.3659 65.3947C87.5489 65.2105 87.7318 65.0263 87.9148 64.9342C89.1954 63.3684 91.1164 62.2632 93.3118 62.2632C95.2328 62.2632 96.7879 63 96.9708 64.5658C97.2453 66.5 95.5072 66.9605 94.9584 66.9605C94.4095 66.9605 93.4948 66.7763 93.4948 66.3158C93.4033 65.8553 94.6839 66.0395 94.5925 64.8421C94.501 64.1053 93.6777 63.7368 92.9459 63.7368C90.3846 63.7368 88.6466 67.1447 88.921 70C89.0125 71.1053 89.5613 72.2105 90.5676 72.2105C91.3908 72.2105 92.58 71.0132 93.0374 69.3553C93.3118 68.25 94.4095 67.4211 95.2328 67.4211C95.5987 67.4211 95.9646 67.6053 95.9646 68.0658C95.9646 68.3421 95.8731 68.8026 95.5072 70.6447C95.3243 71.3816 95.3243 72.1184 95.3243 72.5789C95.5072 73.6842 95.9646 74.4211 96.422 74.8816C96.6049 75.0658 96.6964 75.25 96.6964 75.3421C96.6964 75.6184 96.5135 75.8947 96.1476 75.8947C96.0561 75.8947 95.8731 75.8947 95.7817 75.8026C93.7692 74.9737 92.9459 73.5921 92.763 72.3947C92.0312 73.4079 91.0249 73.8684 89.9272 73.8684C88.1892 73.8684 86.4512 72.3026 86.1767 70.2763C86.0853 69.4474 86.1767 68.5263 86.4512 67.6974C85.7194 68.1579 84.9876 68.4342 84.2558 68.4342C83.9813 68.4342 83.7984 68.4342 83.6154 68.4342C81.8774 70.9211 80.0479 72.6711 78.6758 73.5C78.1269 73.7763 77.5781 73.9605 77.2122 73.9605C76.9377 73.9605 76.5718 73.8684 76.3889 73.5921C75.84 73.2237 75.5656 72.3026 75.4741 71.1974ZM81.6945 62.9079C81.6945 64.0132 82.2433 65.1184 82.8836 65.8553C83.1581 65.1184 83.341 64.3816 83.341 63.6447C83.341 62.2632 82.7922 61.6184 82.4263 61.6184C81.8774 61.6184 81.6945 62.3553 81.6945 62.9079Z" fill="white"/>
</svg>
