<svg width="128" height="128" viewBox="0 0 128 128" fill="none" xmlns="http://www.w3.org/2000/svg">
<path d="M30.2802 101.803L23 19H103L95.7125 101.79L62.9515 111L30.2802 101.803V101.803Z" fill="#1572B6"/>
<path d="M64 104L90.7149 96.3854L97 24H64V104Z" fill="#33A9DC"/>
<path d="M64 54.7487H77.7204L78.668 44.2513H64V34H90L89.7511 36.7505L87.2022 65H64V54.7487V54.7487Z" fill="white"/>
<path d="M64 81.2841L63.9537 81.2975L52.2736 78.2043L51.5267 70H41L42.4688 86.1519L63.9522 92L64 91.9866V81.2841V81.2841Z" fill="#EBEBEB"/>
<path d="M76.6943 65L75.4569 78.4883L64 81.5207V92L85.0586 86.2775L85.2131 84.5757L87 65H76.6943Z" fill="white"/>
<path d="M64 34V44.2508H38.9291L38.7212 41.9473L38.2484 36.7504L38 34H64V34ZM63.9647 54.7492V65H52.5512L52.3433 62.6965L51.8698 57.4996L51.6221 54.7492H63.9647V54.7492Z" fill="#EBEBEB"/>
</svg>
