<svg width="128" height="128" viewBox="0 0 128 128" fill="none" xmlns="http://www.w3.org/2000/svg">
<path d="M126.5 83.8C126.5 87.6 123.4 90.7 119.6 90.7H8.4C4.6 90.7 1.5 87.6 1.5 83.8V44.2C1.5 40.4 4.6 37.3 8.4 37.3H119.6C123.4 37.3 126.5 40.4 126.5 44.2V83.8Z" fill="#003A2B"/>
<path d="M23 45.6H29V73C26 73.6 23.7 73.8 21.3 73.8C14.1 73.8 10.3 70.5 10.3 64.3C10.3 58.3 14.3 54.3 20.5 54.3C21.5 54.3 22.2 54.4 23.1 54.6V45.6H23ZM23 59.4C22.3 59.2 21.7 59.1 21 59.1C18 59.1 16.3 60.9 16.3 64.2C16.3 67.4 18 69.1 21 69.1C21.7 69.1 22.2 69.1 23 68.9V59.4ZM38.4 54.8V68.5C38.4 73.2 38.1 75.5 37 77.5C36 79.4 34.8 80.6 32.2 81.9L26.7 79.3C29.3 78.1 30.6 77 31.4 75.3C32.2 73.6 32.5 71.6 32.5 66.5V54.8H38.4ZM32.5 45.7H38.4V51.8H32.5V45.7ZM42 56.1C44.6 54.9 47.1 54.3 49.8 54.3C52.8 54.3 54.8 55.1 55.7 56.7C56.2 57.6 56.4 58.7 56.4 61.2V73.2C53.7 73.6 50.4 73.9 47.9 73.9C42.9 73.9 40.7 72.2 40.7 68.3C40.7 64.1 43.7 62.2 50.9 61.6V60.3C50.9 59.2 50.4 58.8 48.9 58.8C46.7 58.8 44.2 59.4 41.9 60.6V56.1H42ZM51.2 65.5C47.3 65.9 46 66.5 46 68C46 69.2 46.7 69.7 48.3 69.7C49.2 69.7 50 69.6 51.1 69.4V65.5H51.2ZM59.3 55.7C62.8 54.8 65.7 54.4 68.6 54.4C71.6 54.4 73.8 55.1 75.1 56.4C76.3 57.7 76.7 59.1 76.7 62V73.6H70.8V62.2C70.8 59.9 70 59.1 67.9 59.1C67.1 59.1 66.4 59.2 65.2 59.5V73.6H59.3V55.7ZM79 76.8C81.1 77.9 83.2 78.4 85.3 78.4C89.2 78.4 90.8 76.8 90.8 73.1V73C89.6 73.6 88.5 73.8 87 73.8C81.8 73.8 78.5 70.4 78.5 65C78.5 58.3 83.4 54.5 92 54.5C94.5 54.5 96.9 54.8 99.7 55.3L97.7 59.6C96.1 59.3 97.6 59.6 96.4 59.4V60L96.5 62.5V65.7C96.5 66.5 96.5 67.3 96.6 68.1V69.7C96.6 74.8 96.2 77.2 94.9 79.1C93.1 82 89.9 83.4 85.3 83.4C83 83.4 81 83.1 78.9 82.2V76.8H79ZM90.8 59.2H90.2C89 59.2 87.7 59.5 86.8 60C85.4 60.8 84.6 62.3 84.6 64.3C84.6 67.3 86.1 69 88.7 69C89.5 69 90.2 68.8 90.9 68.6V59.2H90.8ZM109 54.3C114.9 54.3 118.5 58 118.5 64.1C118.5 70.3 114.7 74.2 108.7 74.2C102.8 74.2 99.1 70.5 99.1 64.5C99.2 58.2 103 54.3 109 54.3ZM108.9 69.3C111.2 69.3 112.5 67.4 112.5 64.1C112.5 60.9 111.2 58.9 108.9 58.9C106.6 58.9 105.2 60.8 105.2 64.1C105.3 67.5 106.6 69.3 108.9 69.3Z" fill="white"/>
</svg>
