<svg width="128" height="128" viewBox="0 0 128 128" fill="none" xmlns="http://www.w3.org/2000/svg">
<path d="M19 64.5C19 39.9234 38.9234 20 63.5 20C88.0766 20 108 39.9234 108 64.5C108 89.0766 88.0766 109 63.5 109C38.9234 109 19 89.0766 19 64.5Z" fill="#333333"/>
<path d="M54 91C59.5229 91 64 86.9706 64 82V73H54C48.4771 73 44 77.0296 44 82C44 86.9706 48.4771 91 54 91Z" fill="#0ACF83"/>
<path d="M44 64.5C44 59.8055 48.4771 56 54 56H64V73H54C48.4771 73 44 69.1943 44 64.5Z" fill="#A259FF"/>
<path d="M44 47C44 42.0294 48.4771 38 54 38H64V56H54C48.4771 56 44 51.9704 44 47Z" fill="#F24E1E"/>
<path d="M64 38H72.5C77.1945 38 81 42.0294 81 47C81 51.9704 77.1945 56 72.5 56H64V38Z" fill="#FF7262"/>
<path d="M81 64.5C81 69.1943 77.1945 73 72.5 73C67.8055 73 64 69.1943 64 64.5C64 59.8055 67.8055 56 72.5 56C77.1945 56 81 59.8055 81 64.5Z" fill="#1ABCFE"/>
</svg>
