<svg width="96" height="86" viewBox="0 0 96 86" fill="none" xmlns="http://www.w3.org/2000/svg">
<path d="M48 51.6038C52.8276 51.6038 56.7412 47.6903 56.7412 42.8626C56.7412 38.035 52.8276 34.1214 48 34.1214C43.1724 34.1214 39.2588 38.035 39.2588 42.8626C39.2588 47.6903 43.1724 51.6038 48 51.6038Z" fill="#61DAFB"/>
<path d="M81.2013 28.4473C79.5144 27.8339 77.7508 27.2204 75.9105 26.6837C76.3706 24.8435 76.754 23.0032 77.0607 21.2396C78.6709 11.1182 76.9073 3.98722 72 1.22684C70.5431 0.383386 68.9329 0 67.0927 0C61.7252 0 54.901 3.98722 48 10.6581C41.099 3.98722 34.2748 0 28.9073 0C27.0671 0 25.4569 0.383386 24 1.22684C19.0927 4.0639 17.3291 11.1949 18.9393 21.2396C19.246 23.0032 19.6294 24.8435 20.0895 26.6837C18.2492 27.2204 16.4856 27.7572 14.7987 28.4473C5.21406 32.1278 0 37.1885 0 42.8626C0 48.5367 5.29074 53.5974 14.7987 57.278C16.4856 57.8914 18.2492 58.5048 20.0895 59.0415C19.6294 60.8818 19.246 62.722 18.9393 64.4856C17.3291 74.607 19.0927 81.738 24 84.4984C25.4569 85.3419 27.0671 85.7252 28.9073 85.7252C34.3514 85.7252 41.1757 81.738 48 75.0671C54.901 81.738 61.7252 85.7252 67.0927 85.7252C68.9329 85.7252 70.5431 85.3419 72 84.4984C76.9073 81.6613 78.6709 74.5304 77.0607 64.4856C76.754 62.722 76.3706 60.8818 75.9105 59.0415C77.7508 58.5048 79.5144 57.9681 81.2013 57.278C90.7859 53.5974 96 48.5367 96 42.8626C96 37.1885 90.7859 32.1278 81.2013 28.4473ZM69.853 5.0607C72.9968 6.90096 74.0703 12.5751 72.7668 20.6262C72.5367 22.2364 72.1534 23.9233 71.6933 25.6869C67.7061 24.7668 63.4888 24.1534 59.0415 23.77C56.4345 20.0895 53.7508 16.7923 51.0671 13.8019C56.7412 8.20447 62.492 4.37061 67.1693 4.37061C68.1661 4.37061 69.0863 4.60064 69.853 5.0607V5.0607ZM61.2652 50.5304C59.885 52.984 58.2748 55.4377 56.5879 57.8914C53.7508 58.1214 50.9137 58.1981 48 58.1981C45.0096 58.1981 42.1725 58.1214 39.4121 57.8914C37.7252 55.4377 36.1917 52.984 34.8115 50.5304C33.3546 48 31.9744 45.393 30.7476 42.8626C31.9744 40.3323 33.3546 37.7252 34.8115 35.1949C36.1917 32.7412 37.8019 30.2875 39.4888 27.8339C42.3259 27.6038 45.1629 27.5272 48.0767 27.5272C51.0671 27.5272 53.9042 27.6038 56.6645 27.8339C58.3514 30.2875 59.885 32.7412 61.2652 35.1949C62.722 37.7252 64.1022 40.3323 65.3291 42.8626C64.0256 45.393 62.722 47.9233 61.2652 50.5304ZM67.6294 48C68.7796 50.6837 69.6997 53.2907 70.5431 55.8978C67.9361 56.5112 65.1757 56.9712 62.262 57.3546C63.1821 55.8978 64.1789 54.3642 65.0224 52.754C65.9425 51.1438 66.7859 49.5335 67.6294 48ZM48 68.7796C46.1597 66.7859 44.3962 64.639 42.7093 62.4153C44.4728 62.492 46.2364 62.5687 48 62.5687C49.7636 62.5687 51.5272 62.492 53.2907 62.4153C51.6038 64.639 49.8403 66.7859 48 68.7796ZM33.738 57.278C30.8243 56.8946 28.0639 56.4345 25.4569 55.8211C26.3003 53.2907 27.2204 50.607 28.3706 47.9233C29.2141 49.4569 30.0575 51.0671 30.9776 52.6006C31.8978 54.2875 32.8179 55.7444 33.738 57.278V57.278ZM28.3706 37.7252C27.2204 35.0415 26.3003 32.4345 25.4569 29.8275C28.0639 29.2141 30.8243 28.754 33.738 28.3706C32.8179 29.8275 31.8211 31.361 30.9776 32.9712C30.0575 34.5815 29.2141 36.1917 28.3706 37.7252V37.7252ZM48 16.9457C49.8403 18.9393 51.6038 21.0863 53.2907 23.3099C51.5272 23.2332 49.7636 23.1565 48 23.1565C46.2364 23.1565 44.4728 23.2332 42.7093 23.3099C44.3962 21.0863 46.1597 18.9393 48 16.9457V16.9457ZM65.0224 33.0479L62.262 28.4473C65.1757 28.8307 67.9361 29.2907 70.5431 29.9042C69.6997 32.4345 68.7796 35.1182 67.6294 37.8019C66.7859 36.1917 65.9425 34.5815 65.0224 33.0479V33.0479ZM23.2332 20.6262C21.9297 12.5751 23.0032 6.90096 26.147 5.0607C26.9137 4.60064 27.8339 4.37061 28.8307 4.37061C33.4313 4.37061 39.1821 8.1278 44.9329 13.8019C42.2492 16.7157 39.5655 20.0895 36.9585 23.77C32.5112 24.1534 28.2939 24.8435 24.3067 25.6869C23.8466 23.9233 23.5399 22.2364 23.2332 20.6262ZM4.29393 42.8626C4.29393 39.2588 8.66454 35.4249 16.3323 32.5879C17.8658 31.9744 19.5527 31.4377 21.2396 30.9776C22.4665 34.8115 24 38.8754 25.8403 42.9393C24 47.0032 22.3898 50.9904 21.2396 54.8243C10.6581 51.7572 4.29393 47.1566 4.29393 42.8626V42.8626ZM26.147 80.6645C23.0032 78.8243 21.9297 73.1502 23.2332 65.099C23.4633 63.4888 23.8466 61.8019 24.3067 60.0383C28.2939 60.9585 32.5112 61.5719 36.9585 61.9553C39.5655 65.6358 42.2492 68.9329 44.9329 71.9233C39.2588 77.5208 33.508 81.3546 28.8307 81.3546C27.8339 81.3546 26.9137 81.1246 26.147 80.6645ZM72.7668 65.099C74.0703 73.1502 72.9968 78.8243 69.853 80.6645C69.0863 81.1246 68.1661 81.3546 67.1693 81.3546C62.5687 81.3546 56.8179 77.5974 51.0671 71.9233C53.7508 69.0096 56.4345 65.6358 59.0415 61.9553C63.4888 61.5719 67.7061 60.8818 71.6933 60.0383C72.1534 61.8019 72.4601 63.4888 72.7668 65.099V65.099ZM79.6677 53.1374C78.1342 53.7508 76.4473 54.2875 74.7604 54.7476C73.5335 50.9137 72 46.8498 70.1597 42.7859C72 38.722 73.6102 34.7348 74.7604 30.901C85.3419 33.9681 91.7061 38.5687 91.7061 42.8626C91.7061 46.4665 87.2588 50.3003 79.6677 53.1374V53.1374Z" fill="#61DAFB"/>
</svg>
