<svg width="128" height="128" viewBox="0 0 128 128" fill="none" xmlns="http://www.w3.org/2000/svg">
<path d="M31.2806 100.904L24 19H104L96.7114 100.891L63.9512 110L31.2806 100.904Z" fill="#E44D26"/>
<path d="M64 104L90.7146 96.5757L97 26H64V104Z" fill="#F16529"/>
<path d="M64 56.373H50.8071L49.8958 46.0651H64V36H39L39.2391 38.7002L41.689 66.4389H64V56.373ZM64 82.5144L63.9558 82.5268L52.8528 79.4989L52.1436 71.4721H42.1345L43.5312 87.2763L63.9544 93L64 92.9876V82.5144Z" fill="#EBEBEB"/>
<path d="M64 56.3746V66.4412H76.2886L75.1306 79.4964L64 82.5267V93L84.4593 87.2803L84.6094 85.5797L86.9544 59.0779L87.1973 56.3746H84.5086H64ZM64 36V46.0659H88.1059L88.3061 43.8043L88.7614 38.7004L89 36H64Z" fill="white"/>
</svg>
