<svg width="128" height="128" viewBox="0 0 128 128" fill="none" xmlns="http://www.w3.org/2000/svg">
<path d="M22 23H105V106H22V23Z" fill="#F0DB4F"/>
<path d="M97.7779 86.021C97.1767 82.313 94.7355 79.1985 87.5044 76.2944C84.9924 75.151 82.1919 74.3323 81.3574 72.4469C81.0611 71.3496 81.0218 70.7315 81.2093 70.0673C81.7475 67.9118 84.3453 67.2398 86.4044 67.8579C87.7305 68.2981 88.9859 69.3103 89.743 70.925C93.2842 68.6539 93.277 68.6688 95.7496 67.108C94.8443 65.7179 94.3612 65.0765 93.7686 64.4817C91.6388 62.1256 88.7368 60.9121 84.0956 61.005L81.678 61.3147C79.3613 61.8944 77.1535 63.0988 75.8588 64.7135C71.9742 69.0792 73.082 76.7197 77.809 79.864C82.4659 83.3259 89.3071 84.1134 90.1809 87.3507C91.0311 91.3137 87.2402 92.5967 83.4722 92.1409C80.6954 91.5689 79.1509 90.171 77.4813 87.6292C74.4081 89.3906 74.4081 89.3906 71.2485 91.1904C71.9978 92.8129 72.785 93.5472 74.041 94.9528C79.9854 100.925 94.8607 100.631 97.5287 91.5923C97.6369 91.2819 98.3554 89.2121 97.7779 86.021V86.021ZM67.0432 61.4835H59.3676L59.3362 81.1379C59.3362 85.3178 59.5545 89.1498 58.8681 90.3243C57.7452 92.6343 54.8353 92.348 53.5091 91.9C52.1594 91.243 51.4731 90.3087 50.6779 88.9881C50.4596 88.6089 50.2957 88.3155 50.2407 88.2927L44 92.0779C45.0377 94.1874 46.5664 96.0183 48.5245 97.2077C51.4495 98.9465 55.3807 99.4795 59.4922 98.5446C62.1681 97.7726 64.4768 96.1735 65.6856 93.7394C67.4333 90.5483 67.0583 86.6858 67.0426 82.4137C67.0819 75.4439 67.0432 68.4753 67.0432 61.4835Z" fill="#323330"/>
</svg>
