<svg width="128" height="128" viewBox="0 0 128 128" fill="none" xmlns="http://www.w3.org/2000/svg">
<path d="M74.646 90.25C75.3023 91.198 75.7033 91.1251 76.2135 90.9063C76.7237 90.6874 102.974 81.828 103.776 81.5367C104.578 81.245 104.323 80.9897 104.068 80.5884C103.813 80.1874 95.0626 68.3021 94.6249 67.6094C94.1875 66.9167 93.9687 67.0624 93.276 67.2813L65.4493 74.522C65.4493 74.522 73.9898 89.3017 74.646 90.25ZM106 78.1471V64.2353C102.869 65.0694 98.9096 66.124 97.3464 66.5397C99.7046 69.695 103.391 74.6329 106 78.1471ZM97.3195 49.4053C96.8906 49.5028 87.3947 51.2189 86.8096 51.2967C86.2249 51.3748 86.4198 51.7062 86.6538 52.0376L95.0101 63.5032C95.0101 63.5032 105.228 60.9685 105.852 60.832C105.902 60.8208 105.952 60.809 106 60.7969V59.2786C104.143 56.9237 99.0832 50.5118 98.6458 49.9126C98.1195 49.1911 97.7487 49.3082 97.3195 49.4053V49.4053Z" fill="#F35045"/>
<path d="M37.5715 31.3955C39.6279 31.302 39.8155 31.7699 40.7189 33.1097L63.4153 71.0547L91.9536 64.2182C90.3724 61.9768 83.1943 51.8 82.5003 50.8287C81.7207 49.7367 82.52 49.2298 83.7876 49.0155C85.0548 48.8009 95.9741 46.968 96.91 46.8315C97.8461 46.695 98.5873 46.3636 100.108 48.1965C100.886 49.1343 103.524 52.4195 106 55.4989V37.75C106 33.4115 104.459 29.7018 101.379 26.621C98.2983 23.5405 94.5885 22 90.25 22H37.75C33.4115 22 29.7017 23.5405 26.621 26.621C24.854 28.3886 23.5963 30.3629 22.8433 32.544C27.9876 32.1213 36.1327 31.4612 37.5718 31.3955H37.5715Z" fill="#F35045"/>
<path d="M77.2198 95.3569C74.8134 96.086 73.7342 96.448 72.1667 94.2603C70.9927 92.622 64.6438 81.1869 61.5309 75.5497C55.6394 77.0925 44.8575 79.9065 41.7482 80.6537C38.7137 81.3828 37.4176 79.5633 36.9192 78.4421C36.5697 77.6553 27.673 58.4737 22 46.1664V90.25C22 94.5888 23.5405 98.2979 26.621 101.379C29.7018 104.459 33.4115 106 37.75 106H90.25C94.5885 106 98.2983 104.459 101.379 101.379C104.459 98.2979 106 94.5888 106 90.25V85.0719C99.5556 87.4291 78.8411 94.8657 77.2198 95.3569Z" fill="#F35045"/>
<path d="M41.8227 76.2351C42.6758 76.0399 58.6598 72.2146 59.001 72.1414C59.3423 72.0682 59.5615 71.8733 59.1959 71.2401C58.8304 70.6068 37.8895 34.4605 37.8895 34.4605C37.6962 34.1288 37.7513 34.0182 37.226 34.0458C36.7577 34.0707 24.9088 35.128 22.1657 35.357C22.0847 35.937 22.0342 36.5209 22.0144 37.1062C24.7992 42.8074 40.7829 75.7715 40.8724 76.0399C40.9699 76.3326 40.9699 76.43 41.8227 76.2351V76.2351Z" fill="#F35045"/>
</svg>
