<svg width="128" height="128" viewBox="0 0 128 128" fill="none" xmlns="http://www.w3.org/2000/svg">
<g clip-path="url(#clip0_8_71)">
<path d="M66.912 128L63.504 126.837C63.504 126.837 63.92 109.467 57.6854 108.219C53.5307 103.397 58.352 -96.2506 73.312 107.552C73.312 107.552 68.16 110.128 67.2427 114.533C66.2507 118.859 66.912 128 66.912 128Z" fill="white"/>
<path d="M66.912 128L63.504 126.837C63.504 126.837 63.92 109.467 57.6854 108.219C53.5307 103.397 58.352 -96.2506 73.312 107.552C73.312 107.552 68.16 110.128 67.2427 114.533C66.2507 118.859 66.912 128 66.912 128Z" fill="#A6A385"/>
<path d="M68.7413 111.211C68.7413 111.211 98.5813 91.5946 91.6 50.7839C84.8693 21.1146 68.992 11.3866 67.248 7.64794C65.3387 4.9866 63.5093 0.335938 63.5093 0.335938L64.7573 82.8693C64.752 82.9493 62.176 108.133 68.7413 111.211Z" fill="white"/>
<path d="M68.7413 111.211C68.7413 111.211 98.5813 91.5946 91.6 50.7839C84.8693 21.1146 68.992 11.3866 67.248 7.64794C65.3387 4.9866 63.5093 0.335938 63.5093 0.335938L64.7573 82.8693C64.752 82.9493 62.176 108.133 68.7413 111.211Z" fill="#499D4A"/>
<path d="M61.76 112.288C61.76 112.288 33.7493 93.1733 35.4133 59.5093C36.992 25.8453 56.7734 9.30667 60.5974 6.31467C63.0934 3.65867 63.1734 2.66133 63.3387 0C65.0827 3.73867 64.752 55.936 65.0027 62.0853C65.7494 85.776 63.6747 107.803 61.76 112.288Z" fill="white"/>
<path d="M61.76 112.288C61.76 112.288 33.7493 93.1733 35.4133 59.5093C36.992 25.8453 56.7734 9.30667 60.5974 6.31467C63.0934 3.65867 63.1734 2.66133 63.3387 0C65.0827 3.73867 64.752 55.936 65.0027 62.0853C65.7494 85.776 63.6747 107.803 61.76 112.288Z" fill="#58AA50"/>
</g>
<defs>
<clipPath id="clip0_8_71">
<rect width="128" height="128" fill="white"/>
</clipPath>
</defs>
</svg>
