<svg width="317" height="76" viewBox="0 0 317 76" fill="none" xmlns="http://www.w3.org/2000/svg">
<path d="M8.79763 68.9515C8.22296 68.9518 7.66215 68.7821 7.19152 68.4654C6.72089 68.1487 6.36331 67.7004 6.16743 67.1815C5.97156 66.6627 5.94691 66.0985 6.09684 65.5657C6.24676 65.0329 6.56399 64.5574 7.00534 64.2039L44.4953 34.1852C44.9172 33.8454 45.4341 33.6328 45.9812 33.5741C46.5284 33.5153 47.0814 33.613 47.571 33.8549L60.8608 40.3747L72.7302 29.3892C73.2514 28.9069 73.947 28.6373 74.6707 28.6374H82.1894L96.1251 5.35326C96.3468 4.9799 96.6585 4.66309 97.0342 4.42945C97.4098 4.19582 97.8383 4.05218 98.2837 4.01061C98.7275 3.97293 99.1743 4.03592 99.5881 4.19451C100.002 4.35309 100.371 4.60284 100.666 4.92361L126.927 34.0616L137.971 25.5251C138.532 25.091 139.246 24.8817 139.964 24.9407C140.682 24.9997 141.348 25.3226 141.824 25.842L177.256 64.4913C177.51 64.7541 177.706 65.063 177.833 65.3996C177.96 65.7362 178.015 66.0939 177.996 66.4515C177.977 66.8091 177.884 67.1595 177.722 67.4819C177.56 67.8044 177.332 68.0925 177.053 68.3293C176.773 68.566 176.447 68.7467 176.093 68.8606C175.74 68.9744 175.366 69.0193 174.994 68.9924C174.623 68.9656 174.26 68.8676 173.928 68.7043C173.597 68.5409 173.302 68.3155 173.062 68.0412L139.403 31.3307L128.342 39.8806C127.778 40.3168 127.059 40.5259 126.338 40.4638C125.617 40.4017 124.949 40.0733 124.475 39.5477L99.0023 11.3065L86.2158 32.6599C85.9701 33.0685 85.6167 33.4077 85.1912 33.6434C84.7656 33.8792 84.2829 34.003 83.7916 34.0026H75.7836L63.2934 45.5654C62.8744 45.9537 62.3396 46.2066 61.7636 46.2889C61.1877 46.3712 60.5993 46.2788 60.0807 46.0246L46.6595 39.4376L10.5871 68.3285C10.0848 68.7308 9.45164 68.9512 8.79763 68.9515V68.9515Z" fill="#7E2F73"/>
<path d="M100.589 66.5913C99.9632 66.5921 99.3552 66.3876 98.8626 66.0105C98.37 65.6335 98.0211 65.1057 97.872 64.5119C97.7229 63.9181 97.7821 63.2926 98.0402 62.7356C98.2983 62.1785 98.7403 61.7223 99.2953 61.44L124.643 48.5274L136.727 26.7262C136.898 26.4045 137.133 26.1194 137.418 25.8874C137.703 25.6554 138.032 25.4811 138.387 25.3749C138.742 25.2687 139.115 25.2325 139.484 25.2686C139.853 25.3047 140.211 25.4123 140.538 25.585C140.864 25.7578 141.151 25.9923 141.384 26.2749C141.616 26.5575 141.789 26.8824 141.891 27.2309C141.994 27.5793 142.024 27.9442 141.981 28.3042C141.937 28.6642 141.821 29.0122 141.639 29.3278L129.144 51.8634C128.878 52.3416 128.473 52.7313 127.979 52.9827L101.874 66.2828C101.477 66.4848 101.036 66.5906 100.589 66.5913ZM51.8921 68C51.5005 68.0019 51.1128 67.9233 50.7542 67.7694C50.3956 67.6155 50.0742 67.3896 49.8107 67.1064C49.5472 66.8233 49.3477 66.4892 49.2249 66.1258C49.1021 65.7624 49.0589 65.3778 49.0981 64.9971L50.4588 51.5631L43.3117 38.039C42.9716 37.3957 42.9069 36.6468 43.132 35.9569C43.357 35.267 43.8533 34.6928 44.5117 34.3605C45.1701 34.0281 45.9367 33.965 46.6427 34.1849C47.3488 34.4047 47.9365 34.8897 48.2767 35.533L55.8037 49.775C56.0515 50.243 56.1553 50.7711 56.1027 51.2956L55.4964 57.2659L73.1881 38.0882C73.4887 37.7615 73.8655 37.5106 74.2865 37.3567C74.7076 37.2027 75.1604 37.1503 75.6066 37.2039C76.0528 37.2575 76.4792 37.4155 76.8495 37.6645C77.2199 37.9135 77.5233 38.2461 77.7339 38.6342L84.0316 50.2773L90.4998 36.2291L95.2496 6.31184C95.3634 5.59614 95.7634 4.95391 96.3618 4.52642C96.9602 4.09894 97.7079 3.92122 98.4404 4.03235C99.1729 4.14349 99.8302 4.53438 100.268 5.11904C100.705 5.7037 100.887 6.43423 100.773 7.14992L95.9677 37.4303C95.9307 37.6727 95.8593 37.9088 95.7553 38.1318L86.7865 57.6153C86.5718 58.0813 86.2276 58.4791 85.7929 58.7634C85.3582 59.0476 84.8506 59.207 84.3278 59.2233C83.8025 59.2528 83.2799 59.1309 82.8249 58.8727C82.3699 58.6145 82.0025 58.2314 81.7685 57.7709L74.6689 44.6373L53.9681 67.0991C53.7059 67.3829 53.3856 67.6098 53.028 67.765C52.6704 67.9202 52.2834 68.0002 51.8921 68Z" fill="#7E2F73"/>
<path d="M110.726 52.9999C110.16 53.0006 109.608 52.8304 109.147 52.5129C108.686 52.1955 108.338 51.7465 108.152 51.2285C107.966 50.7104 107.95 50.1489 108.108 49.6221C108.266 49.0952 108.589 48.6291 109.032 48.2886L125.584 35.57C125.864 35.3546 126.186 35.195 126.531 35.1003C126.875 35.0056 127.235 34.9776 127.591 35.0179C127.946 35.0582 128.29 35.1661 128.603 35.3354C128.915 35.5047 129.19 35.732 129.412 36.0044C129.634 36.2768 129.799 36.589 129.897 36.9231C129.994 37.2572 130.023 37.6067 129.982 37.9516C129.94 38.2965 129.829 38.6301 129.654 38.9333C129.48 39.2365 129.245 39.5035 128.965 39.7188L112.424 52.4374C111.94 52.8058 111.341 53.0041 110.726 52.9999Z" fill="#7E2F73"/>
<path d="M146.705 39.6599C146.128 39.6602 167.078 58.8947 149.526 36.1126C146.705 39.6599 143.448 32.842 146.705 32.842C146.705 31.5263 141.853 32.0591 142.003 31.5263C142.154 30.9935 153.095 43.8535 153.538 43.5L176.1 41.1851C176.523 40.8454 177.041 40.6328 177.59 40.5741C178.139 40.5153 178.693 40.613 179.184 40.8549L192.514 47.3747L204.418 36.3892C204.941 35.9069 205.638 35.6373 206.364 35.6374H213.905L227.882 12.3533C228.105 11.9799 228.417 11.6631 228.794 11.4295C229.171 11.1958 229.601 11.0522 230.047 11.0106C230.492 10.9729 230.941 11.0359 231.356 11.1945C231.771 11.3531 232.141 11.6028 232.437 11.9236L258.775 41.0616L269.853 32.5251C270.415 32.091 271.131 31.8817 271.851 31.9407C272.571 31.9997 273.24 32.3226 273.717 32.842L309.254 71.4913C309.508 71.7541 309.705 72.063 309.832 72.3996C309.96 72.7362 310.015 73.0939 309.996 73.4515C309.977 73.8091 309.884 74.1595 309.721 74.4819C309.559 74.8044 309.33 75.0925 309.05 75.3293C308.769 75.566 308.442 75.7467 308.088 75.8605C307.733 75.9744 307.358 76.0193 306.985 75.9924C306.613 75.9656 306.249 75.8676 305.916 75.7043C305.583 75.5409 305.288 75.3155 305.048 75.0412L271.289 38.3307L260.194 46.8806C259.629 47.3168 258.908 47.5259 258.185 47.4638C257.462 47.4017 256.792 47.0733 256.316 46.5477L230.768 18.3065L217.944 39.6599C217.697 40.0685 217.343 40.4077 216.916 40.6434C216.489 40.8792 216.005 41.003 215.512 41.0025H207.481L194.953 52.5654C194.533 52.9537 193.997 53.2066 193.419 53.2889C192.841 53.3712 192.251 53.2788 191.731 53.0246L178.27 46.4376L157.048 49.7719C156.544 50.1742 147.361 39.6596 146.705 39.6599Z" fill="#7E2F73"/>
<path d="M232.589 73.5913C231.963 73.5921 231.355 73.3875 230.863 73.0105C230.37 72.6335 230.021 72.1057 229.872 71.5119C229.723 70.9181 229.782 70.2926 230.04 69.7356C230.298 69.1785 230.74 68.7223 231.295 68.44L256.643 55.5274L268.727 33.7262C268.898 33.4045 269.133 33.1194 269.418 32.8874C269.703 32.6554 270.032 32.4811 270.387 32.3749C270.742 32.2687 271.115 32.2325 271.484 32.2686C271.853 32.3047 272.211 32.4123 272.538 32.585C272.864 32.7578 273.151 32.9923 273.384 33.2749C273.616 33.5575 273.789 33.8824 273.891 34.2309C273.994 34.5793 274.024 34.9441 273.981 35.3042C273.937 35.6642 273.821 36.0122 273.639 36.3278L261.144 58.8634C260.878 59.3416 260.473 59.7313 259.979 59.9827L233.874 73.2828C233.477 73.4848 233.036 73.5906 232.589 73.5913ZM183.892 75C183.5 75.0019 183.113 74.9233 182.754 74.7694C182.396 74.6155 182.074 74.3896 181.811 74.1064C181.547 73.8233 181.348 73.4892 181.225 73.1258C181.102 72.7624 181.059 72.3778 181.098 71.9971L182.459 58.5631L175.312 45.039C174.972 44.3957 174.907 43.6468 175.132 42.9569C175.357 42.267 175.853 41.6928 176.512 41.3605C177.17 41.0281 177.937 40.965 178.643 41.1849C179.349 41.4047 179.937 41.8897 180.277 42.533L187.804 56.775C188.051 57.243 188.155 57.7711 188.103 58.2956L187.496 64.2659L205.188 45.0882C205.489 44.7616 205.865 44.5106 206.287 44.3567C206.708 44.2027 207.16 44.1503 207.607 44.2039C208.053 44.2575 208.479 44.4155 208.85 44.6645C209.22 44.9135 209.523 45.2461 209.734 45.6342L216.032 57.2773L222.5 43.2291L227.25 13.3118C227.363 12.5961 227.763 11.9539 228.362 11.5264C228.96 11.0989 229.708 10.9212 230.44 11.0324C231.173 11.1435 231.83 11.5344 232.268 12.119C232.705 12.7037 232.887 13.4342 232.773 14.1499L227.968 44.4303C227.931 44.6727 227.859 44.9088 227.755 45.1318L218.787 64.6153C218.572 65.0813 218.228 65.4791 217.793 65.7634C217.358 66.0476 216.851 66.207 216.328 66.2233C215.802 66.2528 215.28 66.1309 214.825 65.8727C214.37 65.6145 214.003 65.2314 213.768 64.7709L206.669 51.6373L185.968 74.0991C185.706 74.3829 185.386 74.6098 185.028 74.765C184.67 74.9202 184.283 75.0002 183.892 75Z" fill="#7E2F73"/>
<path d="M242.726 59.9999C242.16 60.0006 241.608 59.8304 241.147 59.5129C240.686 59.1955 240.338 58.7465 240.152 58.2285C239.966 57.7104 239.95 57.1489 240.108 56.6221C240.266 56.0952 240.589 55.6291 241.032 55.2886L257.584 42.57C257.864 42.3546 258.186 42.195 258.531 42.1003C258.875 42.0056 259.235 41.9776 259.591 42.0179C259.946 42.0582 260.29 42.1661 260.603 42.3354C260.915 42.5047 261.19 42.732 261.412 43.0044C261.634 43.2768 261.799 43.589 261.897 43.9231C261.994 44.2572 262.023 44.6067 261.982 44.9516C261.94 45.2965 261.829 45.6301 261.654 45.9333C261.48 46.2365 261.245 46.5035 260.965 46.7188L244.424 59.4374C243.94 59.8058 243.341 60.0041 242.726 59.9999Z" fill="#7E2F73"/>
</svg>
