<svg width="303" height="80" viewBox="0 0 303 80" fill="none" xmlns="http://www.w3.org/2000/svg">
<path d="M205.907 73.6522C205.351 74.8677 203.683 75.7119 203.868 77.265C205.397 76.9274 206.648 76.4884 207.296 75.3742C207.898 74.3275 208.732 73.3483 209.381 72.3354C210.446 70.6471 211.002 68.7563 212.438 67.1693C213.596 65.8863 213.735 64.5019 213.921 63.05C213.967 62.7799 214.059 62.4085 213.596 62.341C213.179 62.2734 212.67 62.7124 212.114 63.3539C211.002 64.7045 209.844 66.933 209.52 67.4057C208.13 69.4654 206.879 71.525 205.907 73.6522ZM-7.83862e-06 74.0574C0.277931 73.5847 0.509559 73.0782 0.648528 72.5717C3.28895 71.1198 5.88304 69.6679 8.8014 68.4862C10.1911 67.9122 11.4882 67.2369 12.6926 66.494C12.6926 66.359 12.7389 66.2239 12.9242 66.0889C14.3139 64.9408 15.7499 63.8266 17.1396 62.6786C18.1587 61.4293 19.5947 60.3826 21.1697 59.5385C23.6712 58.1879 25.9873 56.7697 28.0718 55.149C30.8049 53.0218 34.0475 52.1439 37.985 52.4478C40.1159 52.6167 41.6909 51.8738 42.571 50.557C43.8217 48.6999 46.0916 47.3156 48.3614 46.1676C50.446 45.1208 53.5496 44.1417 54.9856 42.6222C55.5878 42.0145 56.4216 41.508 56.8849 40.7989C58.3209 38.7055 60.8687 37.7601 63.6944 36.916C64.8988 36.5783 65.7789 35.903 66.5201 35.194C67.3539 34.4174 68.234 33.7758 69.1605 33.033C70.0406 32.3577 70.3186 31.311 71.1524 30.5344C72.1252 29.6227 73.3296 28.8462 74.5803 28.1371C76.5722 26.9891 78.5641 25.8411 80.2318 24.4567C81.4362 23.4438 82.5016 22.8022 84.2619 23.5788C85.6979 24.2204 87.0876 24.9294 88.3383 25.7398C88.8942 26.1112 89.4501 26.4826 89.9133 26.8878C90.3302 27.2592 90.6545 28.002 91.164 28.3059C93.7118 29.8591 96.8155 30.9396 99.3632 32.4928C100.197 32.9992 101.17 32.8304 101.726 32.0876C103.393 29.9266 105.756 28.2046 108.072 26.4488C108.582 26.0437 109.184 25.706 109.786 25.4359C111.732 24.6255 113.26 23.4775 115.762 23.7139C115.854 23.6464 115.901 23.6126 115.993 23.5451C119.143 21.4854 121.784 19.0881 124.656 16.8596C125.351 16.3194 125.814 15.6103 126.462 15.0363C127.62 13.9896 129.288 13.4831 130.909 12.9091C133.967 11.8962 136.653 10.3767 139.34 8.92485C143.324 6.79766 146.845 4.40036 149.207 1.15892C150.319 -0.326733 151.94 -0.360502 153.747 0.922565C156.897 3.15105 159.769 5.58213 162.502 8.08073C164.123 9.56639 165.976 10.8495 168.061 11.9637C168.524 12.2001 168.941 12.4702 169.404 12.7403C171.813 13.6182 173.851 14.8675 175.472 16.4882C175.565 16.5895 175.611 16.6908 175.611 16.7921C177.603 18.0751 179.41 19.3582 180.892 20.9114C183.301 23.41 185.756 25.9086 187.979 28.4747C190.342 31.2097 193.77 33.2018 196.827 35.4303C198.865 36.916 201.182 38.2666 203.729 39.347C205.258 39.9886 206.694 39.8873 208.176 39.1107C208.825 38.773 209.52 38.4016 210.215 38.0977C210.215 37.9289 210.307 37.7601 210.585 37.625C212.623 36.6121 214.986 35.5991 216.885 34.3836C218.877 33.0668 220.869 31.7499 222.861 30.4331C224.204 29.5552 225.965 27.7994 228.049 28.002C228.883 28.1033 230.782 28.5085 231.199 29.1163C231.57 29.6565 231.755 30.2305 232.126 30.7708C232.959 31.9863 234.071 33.033 235.553 33.8096C239.028 35.7342 241.807 38.2328 244.957 40.3938C248.385 42.7235 252.6 44.1754 256.353 46.2351C257.186 46.3701 257.742 47.113 258.622 47.2143C260.383 47.4169 262.05 48.0246 263.579 48.7675C266.127 50.0505 266.729 52.3465 268.86 53.866C269.462 54.2711 269.972 54.7438 270.62 55.1153C271.13 55.4191 271.871 55.6217 272.334 55.9594C273.399 56.6009 274.465 57.2087 275.577 57.8164C277.661 58.9982 279.746 59.8761 282.062 60.754C286.37 62.4422 290.354 64.3331 292.902 67.507C294.523 69.5329 296.607 71.3224 298.414 73.247C299.896 74.8002 301.147 76.4885 303 77.9741C302.629 78.1092 302.49 78.2105 302.398 78.1767C299.016 77.265 295.542 77.5689 292.114 77.704C289.103 77.8053 286.972 76.7248 284.702 75.3742C282.71 74.1924 280.163 73.1457 277.939 72.2678C277.059 71.8964 275.855 71.7276 275.021 71.3224C274.233 70.951 273.77 70.2082 273.029 69.7692C271.408 68.8238 270.388 67.5745 269.369 66.2577C268.906 65.6161 267.933 65.3123 266.914 65.1772C264.598 64.9071 263.116 63.8941 262.097 62.3747C260.939 60.6865 258.993 59.4372 256.955 58.3229C256.121 57.8502 255.194 57.1412 254.222 56.9048C252.832 56.5672 251.025 56.7022 249.589 56.5334C245.884 56.1282 242.78 54.5413 240.139 52.6504C237.314 50.5908 234.581 48.5311 232.913 45.7624C232.589 45.1884 231.477 44.5131 230.504 43.9728C227.956 42.6222 225.548 41.1366 226.057 38.4016C226.196 37.625 225.872 36.8484 225.64 36.0718C224.945 35.9368 224.343 35.6329 224.204 35.0589C224.204 35.0251 224.204 34.9914 224.204 34.9576C223.695 34.4849 223.324 34.6537 221.981 35.2953C221.934 35.329 221.888 35.329 221.842 35.3628C220.915 36.0718 219.85 36.6459 218.738 37.1523C214.523 39.7522 210.215 42.2171 205.073 43.8715C202.062 44.8507 199.977 46.539 199.514 49.0713C199.282 50.4557 198.263 51.6712 197.337 52.853C196.827 53.5283 196.735 54.9464 195.484 55.1153C195.16 55.149 194.743 55.1828 194.511 55.3516C194.326 55.4867 194.279 55.6893 194.233 55.8919C193.816 57.31 192.241 57.9853 190.759 58.8294C186.034 61.4968 182.699 65.8187 177.14 67.642C174.36 68.5537 172.044 70.0393 169.728 71.4912C165.698 73.9898 161.483 76.8599 156.572 78.3793C155.878 78.5819 154.905 79.1559 154.395 78.5481C153.932 78.0079 154.58 77.3326 155.229 76.8599C156.341 76.0833 157.453 75.3067 158.611 74.5976C159.63 73.9898 160.047 73.1795 160.371 72.2678C160.741 71.1874 160.278 70.5458 159.305 69.7017C158.101 68.6888 157.638 67.507 157.082 66.2239C156.758 65.4136 156.109 64.7045 155.09 64.2318C153.978 63.7253 152.635 63.6916 151.569 63.1513C148.975 61.8345 147.539 58.6943 147.354 56.4996C147.169 54.2036 146.845 51.9076 146.706 49.6116C146.659 48.97 146.335 48.2948 145.501 47.9909C144.945 47.7545 144.25 47.687 143.648 47.5857C141.471 47.1805 142.305 45.6948 141.934 44.5806C142.12 45.0871 140.684 44.6481 140.591 44.5806C139.479 44.1079 138.506 43.0274 137.117 42.9599C135.82 42.8924 134.986 43.8715 134.291 44.5468C133.087 45.7286 131.789 46.8429 130.122 47.7207C126.555 49.6453 123.822 52.0764 122.664 55.2503C122.432 55.8581 121.83 56.9048 121.459 57.4788C119.977 59.7073 118.819 62.0371 117.151 64.198C116.92 64.5357 114.835 67.0343 113.677 67.1018C113.307 67.1356 113.075 67.068 113.075 66.7304C113.168 65.4811 114.511 64.7383 115.345 63.7591C115.53 63.5227 115.762 62.6111 116.132 61.8007C117.429 58.7619 119.004 55.8243 121.089 52.9881C121.645 52.2452 121.737 51.2323 122.34 50.4219C123.405 48.97 125.258 47.9571 126.787 46.8091C129.798 44.5131 132.299 42.1495 131.651 38.7055C131.048 38.5705 130.77 38.9756 130.353 39.212C127.528 40.6639 124.563 42.0482 121.413 43.095C119.931 43.5677 118.634 43.9053 117.29 44.6144C115.345 45.6611 113.816 47.0117 111.917 48.0922C110.157 49.0713 108.304 49.983 107.146 51.4011C106.126 52.6842 104.412 53.5958 103.069 54.6763C101.865 55.6555 101.448 56.9386 100.799 58.1203C100.475 58.7281 100.104 59.3021 99.5022 59.8086C97.8346 61.2942 97.9735 63.3201 97.0471 65.0421C96.5375 66.0213 96.4449 67.2369 95.5184 68.1147C94.5919 68.9926 93.8045 70.0056 93.2023 71.0185C92.6001 72.0315 92.3684 73.2808 91.164 73.9899C90.6545 74.2937 90.0986 74.5638 89.589 74.8677C89.2648 75.5093 88.6626 76.117 87.9677 76.7586C87.6435 74.2262 89.3574 71.9639 90.8398 69.803C92.8317 66.8992 93.1559 63.6915 93.8971 60.5176C92.9243 60.5176 92.2758 60.8553 91.7199 61.1929C88.431 63.0162 84.8641 64.637 82.7332 67.3382C82.27 67.9122 81.4361 68.216 80.6486 68.4524C78.7957 68.9926 77.3134 69.7692 76.2479 71.0185C75.5531 71.8289 74.673 72.2678 73.5149 72.5717C72.1252 72.9431 70.8282 73.4834 69.4385 73.8886C67.7245 74.3613 66.0106 74.395 64.3429 73.821C63.787 73.6522 63.9723 73.0107 64.7598 72.7743C66.0105 72.3691 67.2149 71.8964 68.512 71.5925C70.3186 71.1536 71.8009 70.377 72.8664 69.3641C74.534 67.7096 76.7575 66.5953 78.981 65.4473C81.5288 64.1305 83.6597 62.476 84.9567 60.4164C85.9758 58.8294 87.5508 58.019 89.6817 57.5126C91.0714 57.1749 92.5074 56.871 93.7118 56.297C99.1779 52.7179 103.393 48.2272 109.091 44.7832C112.195 42.8924 115.484 40.9678 119.375 39.7185C122.386 38.773 125.443 37.8276 127.528 35.8017C127.574 35.768 127.62 35.7342 127.667 35.7004C127.713 35.6667 127.713 35.6329 127.759 35.5991C128.037 35.329 128.362 35.0927 128.686 34.9238C128.732 34.8901 128.732 34.8901 128.778 34.8563C129.983 33.9784 131.419 33.2694 133.087 32.8979C134.847 32.459 137.534 33.4719 138.599 34.9238C138.692 35.0589 138.692 35.2615 138.831 35.3628C140.869 36.7471 142.212 38.5367 144.065 40.0561C146.242 41.8119 148.883 42.1158 151.616 43.1962C153.608 44.0066 154.719 45.7624 156.248 46.9779C158.101 48.4973 159.769 50.118 160.51 52.1102C160.741 52.8192 161.436 53.3595 162.177 53.8322C163.521 54.7776 165.05 55.4867 166.717 56.0944C167.319 56.297 167.968 56.5334 168.338 56.9048C170.191 58.6268 173.11 59.1333 175.426 60.3488C176.399 60.8553 177.186 60.7878 178.113 60.0449C179.41 58.9982 181.124 58.2892 181.865 56.8373C182.282 56.0607 182.513 55.6217 182.282 55.3516C180.707 55.1153 179.224 54.7776 177.742 54.2711C177.094 54.0685 177.279 53.5283 177.742 53.292C175.565 50.6245 173.434 48.1259 172.6 45.2221C171.766 42.3184 171.998 39.2795 170.979 36.3757C170.469 34.8901 169.728 33.5732 167.875 32.5603C166.161 31.6486 165.235 30.1292 163.984 28.8799C163.567 28.4747 163.567 27.9345 163.614 27.3943C163.845 25.0645 163.521 22.3295 160.741 20.8439C158.981 19.8647 157.591 18.5479 156.804 17.0284C155.97 15.4415 156.202 13.7532 154.58 12.4026C153.098 11.1871 151.894 9.87027 151.477 8.24956C151.292 7.57426 150.597 7.10155 149.902 6.79767C148.373 6.12237 145.547 8.95862 144.575 9.56639C141.378 11.5923 137.858 13.4156 134.384 15.1714C133.04 15.8467 131.512 16.3869 130.076 16.9947C127.991 17.8388 126.74 19.527 125.212 20.8101C124.517 21.4179 124.563 21.8568 125.721 21.8231C128.732 21.7218 131.141 22.9373 133.781 23.7476C134.523 23.984 135.264 24.2541 135.588 25.0645C134.059 24.9294 132.67 24.8619 131.28 24.6931C129.612 24.4567 128.037 24.8957 126.462 25.2333C124.748 25.6047 123.034 25.6047 121.274 25.7398C117.522 26.0437 113.214 26.6852 110.666 28.8124C108.072 30.9733 105.848 33.3369 103.81 35.768C102.05 37.8276 100.151 39.8535 98.2978 41.8456C98.0199 42.1495 97.603 42.656 97.0471 42.4534C96.4912 42.2508 96.8155 41.7444 96.9081 41.3729C97.0008 40.934 97.186 40.5288 97.0934 39.9886C94.2677 40.4275 91.9052 41.4405 90.0986 42.8924C85.6516 46.5052 81.6678 50.3882 77.5913 54.2036C76.5722 55.149 76.109 56.162 75.6457 57.2087C75.1362 58.3229 74.4877 59.3696 73.3759 60.2475C71.7083 61.5644 70.8281 63.2188 69.4848 64.6707C69.1605 65.0084 68.9752 65.3798 68.234 65.3798C67.9098 64.8396 68.0024 64.1305 68.3267 63.7928C69.9017 62.1384 69.9017 60.1462 70.6429 58.3229C70.9208 57.6139 71.0134 57.1749 70.7818 56.871C70.0406 56.9386 69.2995 56.9723 68.512 57.0399C66.0105 57.9177 63.6481 58.9982 61.0076 59.7073C59.1547 60.18 57.5334 60.8891 56.19 61.9358C54.615 63.1513 52.7621 64.063 50.8629 64.9071C50.3533 65.1434 50.2143 65.8187 49.9364 66.2914C49.0563 67.8109 48.732 69.4316 48.3614 71.0523C48.1298 72.0652 47.7592 73.0444 46.5085 74.1587C46.9254 71.6938 47.6202 69.4991 47.6666 67.1018C45.1651 68.1147 42.5247 68.5537 40.8571 70.3095C40.0696 71.1198 38.5872 71.4912 37.4291 72.0315C35.9005 72.7068 34.2791 73.2133 32.7042 73.686C30.9439 74.2262 29.091 74.5639 27.0064 74.5976C27.2843 73.8548 28.1645 73.6522 28.813 73.3821C34.1402 71.3562 38.7262 68.6212 42.9879 65.5486C44.285 64.6032 45.4894 63.5565 46.7401 62.5435C49.0563 60.6865 51.1871 58.6943 54.0592 57.2087C56.5606 55.8919 58.2746 54.001 60.3591 52.3803C62.9069 50.3882 66.1032 48.9363 68.7899 47.0792C72.0789 44.7832 76.0164 43.1962 79.8612 41.4405C82.0384 40.4275 82.5942 38.6042 83.2428 36.916C83.7986 35.4978 83.7986 34.0459 83.1964 32.6616C82.5479 31.1759 82.3626 29.6903 82.3626 28.1709C82.3626 27.6981 82.3163 27.2592 81.7604 27.0566C81.2045 26.854 80.7876 27.293 80.3244 27.5293C76.8965 29.2851 74.9972 31.9525 72.5884 34.3498C71.7546 35.194 70.9671 36.0381 70.7818 37.1186C70.6428 37.7939 69.948 38.199 69.1142 38.5029C67.4929 39.1107 65.9179 39.7185 64.2966 40.2925C62.7216 40.8665 61.4709 41.6093 60.5444 42.7235C58.1819 45.7961 55.0319 48.1935 50.2607 49.4765C47.9908 50.0843 46.0916 51.5024 44.5166 52.9543C44.0533 53.3932 43.8681 53.9673 44.4703 54.3724C45.3967 54.9802 45.3967 55.9594 46.3232 56.5672C46.9254 56.9386 46.4622 57.5463 45.721 57.445C45.2114 57.3775 44.6092 56.8035 44.2386 56.5672C42.5247 55.4867 41.2739 54.9464 38.9578 54.8789C36.7343 54.8451 34.7887 55.3516 32.7505 55.9931C27.1917 57.8165 23.3932 61.0579 19.4557 64.2318C17.5102 65.8187 15.6572 67.5407 12.8778 68.4862C11.9977 68.79 11.6271 69.3641 11.3955 70.0056C10.9786 71.0523 10.0984 71.8964 9.17198 72.7743C8.84772 72.673 8.47714 72.6055 8.10655 72.538C8.33817 71.6263 9.26462 70.9172 9.31094 70.0394C8.66242 70.0056 8.29183 70.3432 7.92125 70.5458C5.2345 71.8627 2.82571 73.1795 -7.83862e-06 74.0574ZM177.51 74.8677C177.927 74.1587 178.391 73.5171 179.41 72.9431C179.827 72.3354 180.521 71.7951 181.541 71.3562C185.663 69.4991 190.018 67.9797 194.187 66.2239C195.762 65.5486 196.966 64.5019 198.171 63.5227C199.468 62.476 200.857 61.7669 202.479 61.0241C206.694 59.0658 210.863 56.8373 214.523 54.3387C214.662 53.6296 215.542 53.0894 216.468 52.9543C216.515 52.9543 216.515 52.9543 216.561 52.9543C217.395 51.7725 218.97 50.7596 220.591 50.5908C221.656 50.4895 222.537 50.8609 223.278 51.3336C225.038 52.4478 226.752 53.6971 228.605 54.7438C230.504 55.8243 232.542 57.0736 234.627 57.9177C236.619 58.7281 239.12 58.4918 241.251 58.458C243.058 58.4242 244.447 58.8969 245.652 59.8423C247.505 61.2942 250.192 62.0708 251.906 63.5565C252.044 63.6915 253.666 63.6915 253.99 63.7253C254.731 63.8604 255.472 64.0292 256.121 64.2993C257.464 64.8058 258.437 65.5824 259.595 66.2914C262.375 67.9797 264.969 69.8368 267.563 71.6938C268.119 72.099 268.767 71.9977 269.138 72.3016C271.917 74.3613 275.577 75.9482 276.827 78.9533C276.966 79.2909 277.383 79.5611 277.105 80C274.835 78.5481 272.519 77.13 270.296 75.6443C269.369 75.0366 267.933 74.9353 267.007 74.3275C266.683 74.1249 264.783 72.6393 264.274 73.247C263.903 73.686 264.089 74.4626 264.598 75.0703C265.71 76.3534 266.729 77.6365 268.072 78.8182C265.386 77.9741 263.625 76.4884 262.189 74.7327C260.661 72.8081 258.715 71.1874 256.075 69.9718C252.786 68.4524 249.126 67.4732 245.837 65.9876C244.864 65.5486 244.077 64.9071 243.011 64.6032C242.456 64.6707 241.668 64.772 241.112 64.6707C240.973 64.7383 240.834 64.8396 240.695 64.9071C240.927 65.346 241.344 65.785 241.761 66.1564C243.753 67.9122 245.698 69.7017 247.829 71.3899C247.968 71.525 248.107 71.6263 248.2 71.7614C249.126 72.2341 249.914 72.7743 250.562 73.4496C252.647 74.834 255.009 75.982 256.769 77.6365C257.928 78.7169 257.65 79.5273 255.797 79.7974C252.925 80.2026 250.192 79.8649 247.829 78.5481C245.884 77.5014 243.799 76.9949 241.39 76.9612C239.167 76.9274 237.267 76.3534 235.553 75.2729C234.071 74.3275 232.033 73.8886 230.736 72.7405C229.068 71.2887 227.308 69.8705 226.659 68.0135C226.381 67.2031 225.594 66.6966 224.945 66.0889C224.204 65.4136 222.537 65.211 221.564 64.8058C220.128 64.1643 219.85 63.05 219.618 61.9358C219.34 60.3488 218.182 59.3021 216.746 58.2892C215.773 57.6139 214.801 57.5801 213.921 58.3905C211.697 60.5176 208.547 61.6319 205.397 62.7799C203.544 63.4552 201.784 64.2655 200.44 65.6161C199.004 67.0343 197.707 68.5199 196.364 70.0056C195.438 71.0523 194.789 72.8081 193.399 73.5171C191.268 74.5976 189.879 75.5093 188.489 77.13C187.794 77.9741 186.96 78.7507 185.617 79.6286C185.988 76.6235 186.775 74.0574 189.879 72.2678C191.129 71.525 191.454 70.5458 191.778 69.3303C188.35 70.1744 185.617 71.525 183.069 73.112C181.726 73.9561 180.383 74.969 178.854 75.6781C178.53 76.691 176.816 76.6235 176.121 77.4001C176.445 77.0625 176.491 76.3534 176.723 75.9482C177.14 75.543 177.325 75.1716 177.51 74.8677Z" fill="#7E2F73"/>
</svg>
