<svg width="303" height="80" viewBox="0 0 303 80" fill="none" xmlns="http://www.w3.org/2000/svg">
<path d="M97.0934 73.6522C97.6493 74.8677 99.3169 75.7119 99.1316 77.265C97.603 76.9274 96.3522 76.4884 95.7037 75.3742C95.1015 74.3275 94.2677 73.3483 93.6192 72.3354C92.5537 70.6471 91.9979 68.7563 90.5618 67.1693C89.4038 65.8863 89.2648 64.5019 89.0795 63.05C89.0332 62.7799 88.9405 62.4085 89.4038 62.341C89.8207 62.2734 90.3302 62.7124 90.8861 63.3539C91.9979 64.7045 93.1559 66.933 93.4802 67.4057C94.8699 69.4654 96.1206 71.525 97.0934 73.6522ZM303 74.0574C302.722 73.5847 302.49 73.0782 302.351 72.5717C299.711 71.1198 297.117 69.6679 294.199 68.4862C292.809 67.9122 291.512 67.2369 290.307 66.494C290.307 66.359 290.261 66.2239 290.076 66.0889C288.686 64.9408 287.25 63.8266 285.86 62.6786C284.841 61.4293 283.405 60.3826 281.83 59.5385C279.329 58.1879 277.013 56.7697 274.928 55.149C272.195 53.0218 268.952 52.1439 265.015 52.4478C262.884 52.6167 261.309 51.8738 260.429 50.557C259.178 48.6999 256.908 47.3156 254.639 46.1676C252.554 45.1208 249.45 44.1417 248.014 42.6222C247.412 42.0145 246.578 41.508 246.115 40.7989C244.679 38.7055 242.131 37.7601 239.306 36.916C238.101 36.5783 237.221 35.903 236.48 35.194C235.646 34.4174 234.766 33.7758 233.839 33.033C232.959 32.3577 232.681 31.311 231.848 30.5344C230.875 29.6227 229.67 28.8462 228.42 28.1371C226.428 26.9891 224.436 25.8411 222.768 24.4567C221.564 23.4438 220.498 22.8022 218.738 23.5788C217.302 24.2204 215.912 24.9294 214.662 25.7398C214.106 26.1112 213.55 26.4826 213.087 26.8878C212.67 27.2592 212.346 28.002 211.836 28.3059C209.288 29.8591 206.185 30.9396 203.637 32.4928C202.803 32.9992 201.83 32.8304 201.274 32.0876C199.607 29.9266 197.244 28.2046 194.928 26.4488C194.418 26.0437 193.816 25.706 193.214 25.4359C191.268 24.6255 189.74 23.4775 187.238 23.7139C187.146 23.6464 187.099 23.6126 187.007 23.5451C183.857 21.4854 181.216 19.0881 178.344 16.8596C177.649 16.3194 177.186 15.6103 176.538 15.0363C175.38 13.9896 173.712 13.4831 172.091 12.9091C169.033 11.8962 166.347 10.3767 163.66 8.92485C159.676 6.79766 156.155 4.40036 153.793 1.15892C152.681 -0.326733 151.06 -0.360502 149.253 0.922565C146.103 3.15105 143.231 5.58213 140.498 8.08073C138.877 9.56639 137.024 10.8495 134.939 11.9637C134.476 12.2001 134.059 12.4702 133.596 12.7403C131.187 13.6182 129.149 14.8675 127.528 16.4882C127.435 16.5895 127.389 16.6908 127.389 16.7921C125.397 18.0751 123.59 19.3582 122.108 20.9114C119.699 23.41 117.244 25.9086 115.021 28.4747C112.658 31.2097 109.23 33.2018 106.173 35.4303C104.135 36.916 101.818 38.2666 99.2706 39.347C97.742 39.9886 96.3059 39.8873 94.8236 39.1107C94.1751 38.773 93.4802 38.4016 92.7854 38.0977C92.7854 37.9289 92.6927 37.7601 92.4148 37.625C90.3766 36.6121 88.0141 35.5991 86.1148 34.3836C84.1229 33.0668 82.131 31.7499 80.1391 30.4331C78.7958 29.5552 77.0355 27.7994 74.9509 28.002C74.1171 28.1033 72.2179 28.5085 71.801 29.1163C71.4304 29.6565 71.2451 30.2305 70.8745 30.7708C70.0407 31.9863 68.9289 33.033 67.4466 33.8096C63.9723 35.7342 61.1929 38.2328 58.043 40.3938C54.615 42.7235 50.3996 44.1754 46.6475 46.2351C45.8136 46.3701 45.2578 47.113 44.3776 47.2143C42.6173 47.4169 40.9497 48.0246 39.421 48.7675C36.8733 50.0505 36.2711 52.3465 34.1402 53.866C33.538 54.2711 33.0284 54.7438 32.3799 55.1153C31.8704 55.4191 31.1292 55.6217 30.666 55.9594C29.6005 56.6009 28.5351 57.2087 27.4233 57.8164C25.3388 58.9982 23.2542 59.8761 20.9381 60.754C16.63 62.4422 12.6462 64.3331 10.0985 67.507C8.47714 69.5329 6.3926 71.3224 4.586 73.247C3.10365 74.8002 1.85293 76.4885 0 77.9741C0.370586 78.1092 0.509555 78.2105 0.602201 78.1767C3.98379 77.265 7.45803 77.5689 10.886 77.704C13.897 77.8053 16.0278 76.7248 18.2977 75.3742C20.2896 74.1924 22.8373 73.1457 25.0608 72.2678C25.941 71.8964 27.1454 71.7276 27.9792 71.3224C28.7667 70.951 29.2299 70.2082 29.9711 69.7692C31.5924 68.8238 32.6115 67.5745 33.6306 66.2577C34.0939 65.6161 35.0667 65.3123 36.0858 65.1772C38.4019 64.9071 39.8843 63.8941 40.9034 62.3747C42.0615 60.6865 44.007 59.4372 46.0453 58.3229C46.8791 57.8502 47.8055 57.1412 48.7783 56.9048C50.168 56.5672 51.9746 56.7022 53.4106 56.5334C57.1165 56.1282 60.2202 54.5413 62.8606 52.6504C65.6863 50.5908 68.4194 48.5311 70.087 45.7624C70.4113 45.1884 71.523 44.5131 72.4958 43.9728C75.0436 42.6222 77.4524 41.1366 76.9428 38.4016C76.8039 37.625 77.1281 36.8484 77.3597 36.0718C78.0546 35.9368 78.6568 35.6329 78.7958 35.0589C78.7958 35.0251 78.7958 34.9914 78.7958 34.9576C79.3053 34.4849 79.6759 34.6537 81.0193 35.2953C81.0656 35.329 81.1119 35.329 81.1582 35.3628C82.0847 36.0718 83.1501 36.6459 84.2619 37.1523C88.4773 39.7522 92.7854 42.2171 97.9272 43.8715C100.938 44.8507 103.023 46.539 103.486 49.0713C103.718 50.4557 104.737 51.6712 105.663 52.853C106.173 53.5283 106.265 54.9464 107.516 55.1153C107.84 55.149 108.257 55.1828 108.489 55.3516C108.674 55.4867 108.721 55.6893 108.767 55.8919C109.184 57.31 110.759 57.9853 112.241 58.8294C116.966 61.4968 120.301 65.8187 125.86 67.642C128.64 68.5537 130.956 70.0393 133.272 71.4912C137.302 73.9898 141.517 76.8599 146.428 78.3793C147.122 78.5819 148.095 79.1559 148.605 78.5481C149.068 78.0079 148.42 77.3326 147.771 76.8599C146.659 76.0833 145.547 75.3067 144.389 74.5976C143.37 73.9898 142.953 73.1795 142.629 72.2678C142.259 71.1874 142.722 70.5458 143.695 69.7017C144.899 68.6888 145.362 67.507 145.918 66.2239C146.242 65.4136 146.891 64.7045 147.91 64.2318C149.022 63.7253 150.365 63.6916 151.431 63.1513C154.025 61.8345 155.461 58.6943 155.646 56.4996C155.831 54.2036 156.155 51.9076 156.294 49.6116C156.341 48.97 156.665 48.2948 157.499 47.9909C158.055 47.7545 158.75 47.687 159.352 47.5857C161.529 47.1805 160.695 45.6948 161.066 44.5806C160.88 45.0871 162.316 44.6481 162.409 44.5806C163.521 44.1079 164.494 43.0274 165.883 42.9599C167.18 42.8924 168.014 43.8715 168.709 44.5468C169.913 45.7286 171.211 46.8429 172.878 47.7207C176.445 49.6453 179.178 52.0764 180.336 55.2503C180.568 55.8581 181.17 56.9048 181.541 57.4788C183.023 59.7073 184.181 62.0371 185.849 64.198C186.08 64.5357 188.165 67.0343 189.323 67.1018C189.693 67.1356 189.925 67.068 189.925 66.7304C189.832 65.4811 188.489 64.7383 187.655 63.7591C187.47 63.5227 187.238 62.6111 186.868 61.8007C185.571 58.7619 183.996 55.8243 181.911 52.9881C181.355 52.2452 181.263 51.2323 180.66 50.4219C179.595 48.97 177.742 47.9571 176.213 46.8091C173.202 44.5131 170.701 42.1495 171.349 38.7055C171.952 38.5705 172.23 38.9756 172.647 39.212C175.472 40.6639 178.437 42.0482 181.587 43.095C183.069 43.5677 184.366 43.9053 185.71 44.6144C187.655 45.6611 189.184 47.0117 191.083 48.0922C192.843 49.0713 194.696 49.983 195.854 51.4011C196.874 52.6842 198.588 53.5958 199.931 54.6763C201.135 55.6555 201.552 56.9386 202.201 58.1203C202.525 58.7281 202.896 59.3021 203.498 59.8086C205.165 61.2942 205.026 63.3201 205.953 65.0421C206.462 66.0213 206.555 67.2369 207.482 68.1147C208.408 68.9926 209.196 70.0056 209.798 71.0185C210.4 72.0315 210.632 73.2808 211.836 73.9899C212.346 74.2937 212.901 74.5638 213.411 74.8677C213.735 75.5093 214.337 76.117 215.032 76.7586C215.357 74.2262 213.643 71.9639 212.16 69.803C210.168 66.8992 209.844 63.6915 209.103 60.5176C210.076 60.5176 210.724 60.8553 211.28 61.1929C214.569 63.0162 218.136 64.637 220.267 67.3382C220.73 67.9122 221.564 68.216 222.351 68.4524C224.204 68.9926 225.687 69.7692 226.752 71.0185C227.447 71.8289 228.327 72.2678 229.485 72.5717C230.875 72.9431 232.172 73.4834 233.562 73.8886C235.275 74.3613 236.989 74.395 238.657 73.821C239.213 73.6522 239.028 73.0107 238.24 72.7743C236.989 72.3691 235.785 71.8964 234.488 71.5925C232.681 71.1536 231.199 70.377 230.134 69.3641C228.466 67.7096 226.242 66.5953 224.019 65.4473C221.471 64.1305 219.34 62.476 218.043 60.4164C217.024 58.8294 215.449 58.019 213.318 57.5126C211.929 57.1749 210.493 56.871 209.288 56.297C203.822 52.7179 199.607 48.2272 193.909 44.7832C190.805 42.8924 187.516 40.9678 183.625 39.7185C180.614 38.773 177.557 37.8276 175.472 35.8017C175.426 35.768 175.38 35.7342 175.333 35.7004C175.287 35.6667 175.287 35.6329 175.241 35.5991C174.963 35.329 174.638 35.0927 174.314 34.9238C174.268 34.8901 174.268 34.8901 174.222 34.8563C173.017 33.9784 171.581 33.2694 169.913 32.8979C168.153 32.459 165.466 33.4719 164.401 34.9238C164.308 35.0589 164.308 35.2615 164.169 35.3628C162.131 36.7471 160.788 38.5367 158.935 40.0561C156.758 41.8119 154.117 42.1158 151.384 43.1962C149.392 44.0066 148.281 45.7624 146.752 46.9779C144.899 48.4973 143.231 50.118 142.49 52.1102C142.259 52.8192 141.564 53.3595 140.823 53.8322C139.479 54.7776 137.95 55.4867 136.283 56.0944C135.681 56.297 135.032 56.5334 134.662 56.9048C132.809 58.6268 129.89 59.1333 127.574 60.3488C126.601 60.8553 125.814 60.7878 124.887 60.0449C123.59 58.9982 121.876 58.2892 121.135 56.8373C120.718 56.0607 120.487 55.6217 120.718 55.3516C122.293 55.1153 123.776 54.7776 125.258 54.2711C125.906 54.0685 125.721 53.5283 125.258 53.292C127.435 50.6245 129.566 48.1259 130.4 45.2221C131.234 42.3184 131.002 39.2795 132.021 36.3757C132.531 34.8901 133.272 33.5732 135.125 32.5603C136.839 31.6486 137.765 30.1292 139.016 28.8799C139.433 28.4747 139.433 27.9345 139.386 27.3943C139.155 25.0645 139.479 22.3295 142.259 20.8439C144.019 19.8647 145.409 18.5479 146.196 17.0284C147.03 15.4415 146.798 13.7532 148.42 12.4026C149.902 11.1871 151.106 9.87027 151.523 8.24956C151.708 7.57426 152.403 7.10155 153.098 6.79767C154.627 6.12237 157.453 8.95862 158.425 9.56639C161.622 11.5923 165.142 13.4156 168.616 15.1714C169.96 15.8467 171.488 16.3869 172.924 16.9947C175.009 17.8388 176.26 19.527 177.788 20.8101C178.483 21.4179 178.437 21.8568 177.279 21.8231C174.268 21.7218 171.859 22.9373 169.219 23.7476C168.477 23.984 167.736 24.2541 167.412 25.0645C168.941 24.9294 170.33 24.8619 171.72 24.6931C173.388 24.4567 174.963 24.8957 176.538 25.2333C178.252 25.6047 179.966 25.6047 181.726 25.7398C185.478 26.0437 189.786 26.6852 192.334 28.8124C194.928 30.9733 197.152 33.3369 199.19 35.768C200.95 37.8276 202.849 39.8535 204.702 41.8456C204.98 42.1495 205.397 42.656 205.953 42.4534C206.509 42.2508 206.185 41.7444 206.092 41.3729C205.999 40.934 205.814 40.5288 205.907 39.9886C208.732 40.4275 211.095 41.4405 212.901 42.8924C217.348 46.5052 221.332 50.3882 225.409 54.2036C226.428 55.149 226.891 56.162 227.354 57.2087C227.864 58.3229 228.512 59.3696 229.624 60.2475C231.292 61.5644 232.172 63.2188 233.515 64.6707C233.839 65.0084 234.025 65.3798 234.766 65.3798C235.09 64.8396 234.998 64.1305 234.673 63.7928C233.098 62.1384 233.098 60.1462 232.357 58.3229C232.079 57.6139 231.987 57.1749 232.218 56.871C232.959 56.9386 233.701 56.9723 234.488 57.0399C236.989 57.9177 239.352 58.9982 241.992 59.7073C243.845 60.18 245.467 60.8891 246.81 61.9358C248.385 63.1513 250.238 64.063 252.137 64.9071C252.647 65.1434 252.786 65.8187 253.064 66.2914C253.944 67.8109 254.268 69.4316 254.639 71.0523C254.87 72.0652 255.241 73.0444 256.492 74.1587C256.075 71.6938 255.38 69.4991 255.333 67.1018C257.835 68.1147 260.475 68.5537 262.143 70.3095C262.93 71.1198 264.413 71.4912 265.571 72.0315C267.1 72.7068 268.721 73.2133 270.296 73.686C272.056 74.2262 273.909 74.5639 275.994 74.5976C275.716 73.8548 274.835 73.6522 274.187 73.3821C268.86 71.3562 264.274 68.6212 260.012 65.5486C258.715 64.6032 257.511 63.5565 256.26 62.5435C253.944 60.6865 251.813 58.6943 248.941 57.2087C246.439 55.8919 244.725 54.001 242.641 52.3803C240.093 50.3882 236.897 48.9363 234.21 47.0792C230.921 44.7832 226.984 43.1962 223.139 41.4405C220.962 40.4275 220.406 38.6042 219.757 36.916C219.201 35.4978 219.201 34.0459 219.804 32.6616C220.452 31.1759 220.637 29.6903 220.637 28.1709C220.637 27.6981 220.684 27.2592 221.24 27.0566C221.795 26.854 222.212 27.293 222.676 27.5293C226.104 29.2851 228.003 31.9525 230.412 34.3498C231.245 35.194 232.033 36.0381 232.218 37.1186C232.357 37.7939 233.052 38.199 233.886 38.5029C235.507 39.1107 237.082 39.7185 238.703 40.2925C240.278 40.8665 241.529 41.6093 242.456 42.7235C244.818 45.7961 247.968 48.1935 252.739 49.4765C255.009 50.0843 256.908 51.5024 258.483 52.9543C258.947 53.3932 259.132 53.9673 258.53 54.3724C257.603 54.9802 257.603 55.9594 256.677 56.5672C256.075 56.9386 256.538 57.5463 257.279 57.445C257.789 57.3775 258.391 56.8035 258.761 56.5672C260.475 55.4867 261.726 54.9464 264.042 54.8789C266.266 54.8451 268.211 55.3516 270.25 55.9931C275.808 57.8165 279.607 61.0579 283.544 64.2318C285.49 65.8187 287.343 67.5407 290.122 68.4862C291.002 68.79 291.373 69.3641 291.605 70.0056C292.021 71.0523 292.902 71.8964 293.828 72.7743C294.152 72.673 294.523 72.6055 294.893 72.538C294.662 71.6263 293.735 70.9172 293.689 70.0394C294.338 70.0056 294.708 70.3432 295.079 70.5458C297.765 71.8627 300.174 73.1795 303 74.0574ZM125.49 74.8677C125.073 74.1587 124.609 73.5171 123.59 72.9431C123.173 72.3354 122.479 71.7951 121.459 71.3562C117.337 69.4991 112.982 67.9797 108.813 66.2239C107.238 65.5486 106.034 64.5019 104.829 63.5227C103.532 62.476 102.143 61.7669 100.521 61.0241C96.3059 59.0658 92.1368 56.8373 88.4773 54.3387C88.3383 53.6296 87.4582 53.0894 86.5317 52.9543C86.4854 52.9543 86.4854 52.9543 86.4391 52.9543C85.6053 51.7725 84.0303 50.7596 82.409 50.5908C81.3435 50.4895 80.4634 50.8609 79.7222 51.3336C77.9619 52.4478 76.248 53.6971 74.3951 54.7438C72.4958 55.8243 70.4576 57.0736 68.373 57.9177C66.3811 58.7281 63.8797 58.4918 61.7488 58.458C59.9422 58.4242 58.5525 58.8969 57.3481 59.8423C55.4952 61.2942 52.8084 62.0708 51.0945 63.5565C50.9555 63.6915 49.3342 63.6915 49.0099 63.7253C48.2688 63.8604 47.5276 64.0292 46.8791 64.2993C45.5357 64.8058 44.5629 65.5824 43.4048 66.2914C40.6254 67.9797 38.0313 69.8368 35.4372 71.6938C34.8814 72.099 34.2328 71.9977 33.8623 72.3016C31.0829 74.3613 27.4233 75.9482 26.1726 78.9533C26.0336 79.2909 25.6167 79.5611 25.8947 80C28.1645 78.5481 30.4807 77.13 32.7042 75.6443C33.6306 75.0366 35.0667 74.9353 35.9931 74.3275C36.3174 74.1249 38.2166 72.6393 38.7262 73.247C39.0968 73.686 38.9115 74.4626 38.4019 75.0703C37.2902 76.3534 36.2711 77.6365 34.9277 78.8182C37.6144 77.9741 39.3747 76.4884 40.8107 74.7327C42.3394 72.8081 44.285 71.1874 46.9254 69.9718C50.2143 68.4524 53.8739 67.4732 57.1628 65.9876C58.1356 65.5486 58.9231 64.9071 59.9885 64.6032C60.5444 64.6707 61.3319 64.772 61.8878 64.6707C62.0268 64.7383 62.1657 64.8396 62.3047 64.9071C62.0731 65.346 61.6562 65.785 61.2393 66.1564C59.2474 67.9122 57.3018 69.7017 55.1709 71.3899C55.032 71.525 54.893 71.6263 54.8003 71.7614C53.8739 72.2341 53.0864 72.7743 52.4379 73.4496C50.3533 74.834 47.9908 75.982 46.2305 77.6365C45.0725 78.7169 45.3504 79.5273 47.2033 79.7974C50.0754 80.2026 52.8084 79.8649 55.1709 78.5481C57.1165 77.5014 59.201 76.9949 61.6098 76.9612C63.8334 76.9274 65.7326 76.3534 67.4466 75.2729C68.9289 74.3275 70.9671 73.8886 72.2642 72.7405C73.9318 71.2887 75.6921 69.8705 76.3406 68.0135C76.6186 67.2031 77.4061 66.6966 78.0546 66.0889C78.7958 65.4136 80.4634 65.211 81.4362 64.8058C82.8722 64.1643 83.1501 63.05 83.3818 61.9358C83.6597 60.3488 84.8178 59.3021 86.2538 58.2892C87.2266 57.6139 88.1994 57.5801 89.0795 58.3905C91.303 60.5176 94.453 61.6319 97.603 62.7799C99.4559 63.4552 101.216 64.2655 102.56 65.6161C103.996 67.0343 105.293 68.5199 106.636 70.0056C107.562 71.0523 108.211 72.8081 109.601 73.5171C111.732 74.5976 113.121 75.5093 114.511 77.13C115.206 77.9741 116.04 78.7507 117.383 79.6286C117.012 76.6235 116.225 74.0574 113.121 72.2678C111.871 71.525 111.546 70.5458 111.222 69.3303C114.65 70.1744 117.383 71.525 119.931 73.112C121.274 73.9561 122.617 74.969 124.146 75.6781C124.47 76.691 126.184 76.6235 126.879 77.4001C126.555 77.0625 126.509 76.3534 126.277 75.9482C125.86 75.543 125.675 75.1716 125.49 74.8677Z" fill="#7E2F73"/>
</svg>
