<svg width="128" height="128" viewBox="0 0 128 128" fill="none" xmlns="http://www.w3.org/2000/svg">
<path d="M105.962 104.011L104.178 102.284C102.488 100.044 100.313 98.0754 98.0306 96.4412C96.2106 95.1371 92.1245 93.3757 91.3648 91.2623L91.225 91.1296C92.5159 90.9839 94.0229 90.5184 95.2143 90.1992C97.215 89.6642 98.8667 89.8024 100.933 89.2701C101.864 89.0047 102.91 88.7385 103.592 88.4731V87.9422C102.91 86.8729 101.937 85.4572 100.798 84.4894C97.8185 81.9574 94.6326 79.4275 91.2843 77.3176C89.4274 76.1482 87.1648 75.388 85.1975 74.3963C84.5353 74.0621 83.389 73.8885 82.9512 73.3331C81.9167 72.0182 81.3637 70.3506 80.5658 68.8185C78.8958 65.608 77.2592 62.1021 75.7794 58.7241C74.7701 56.4208 74.1134 54.1503 72.8546 52.0839C66.8127 42.1691 60.3106 36.1857 50.2371 30.3037C48.0925 29.0527 45.5121 28.5592 42.7844 27.9126C41.3223 27.8248 39.8582 27.7357 38.3948 27.6465C37.5008 27.2749 36.5713 26.1838 35.7339 25.6543C32.3952 23.5498 23.835 18.9726 21.363 24.9907C19.8021 28.7893 23.6952 32.4946 25.0877 34.4201C26.0663 35.7692 27.3176 37.2836 28.0152 38.802C28.4755 39.8005 28.5539 40.8017 28.9474 41.8574C29.9144 44.4588 30.7552 47.2888 32.0072 49.6921C32.6394 50.9091 33.3363 52.19 34.1362 53.2777C34.6258 53.9454 35.4659 54.2394 35.5989 55.2699C34.7779 56.4174 34.7308 58.1993 34.2692 59.6532C32.1893 66.1974 32.9749 74.3323 35.9992 79.1757C36.9266 80.6635 39.1129 83.8523 42.1195 82.6285C44.749 81.5599 44.3194 78.2466 45.0716 75.324C45.2414 74.6624 44.9454 74.1751 45.6273 73.7306V73.8634C46.3092 75.4567 47.0662 77.0507 47.8654 78.6441C49.6384 81.4939 52.5632 84.4717 55.2288 86.4809C56.6111 87.5229 57.902 89.3239 59.2658 89.9337V89.865H59.4166C59.0708 89.1843 58.5287 89.0707 58.0868 88.6371C57.0455 87.6189 55.8869 86.3352 55.027 85.1679C52.6021 81.8825 50.4595 78.2786 48.5071 74.5351C47.5742 72.7478 46.7634 70.7719 45.9778 68.9533C45.6757 68.2522 45.6792 67.1891 45.0477 66.8263C44.1864 68.159 42.9187 69.2357 42.2525 70.81C41.188 73.3257 41.0509 76.3939 40.6561 79.5745C40.4222 79.6576 40.5265 79.6004 40.3894 79.7066C38.536 79.2608 37.8854 77.357 37.196 75.7228C35.4537 71.5914 35.1304 64.9396 36.6634 60.1847C37.0603 58.9535 38.8531 55.0793 38.1268 53.942C37.7804 52.8087 36.6375 52.1519 35.9985 51.2855C35.2068 50.2142 34.4171 48.8039 33.8689 47.5665C32.443 44.3465 31.7781 40.7303 30.2765 37.4741C29.5584 35.9175 28.3453 34.3419 27.349 32.9588C26.2463 31.4254 25.0106 30.2962 24.1548 28.4428C23.8514 27.784 23.4381 26.729 23.8889 26.0518C24.0321 25.5951 24.2346 25.4045 24.6874 25.2555C25.46 24.6613 27.6081 25.4528 28.4128 25.7857C30.5465 26.6705 32.3277 27.4872 34.1355 28.6824C35.0022 29.2569 35.8806 29.9688 36.9294 30.6495H38.1268C40.0001 30.6495 42.0984 30.8074 43.8489 31.3383C46.9414 32.2768 49.7134 33.749 52.2311 35.3356C59.9 40.1694 66.1703 47.056 70.4603 55.2631C71.1505 56.5849 71.4491 57.8488 72.0567 59.2502C73.2828 62.0769 74.8281 64.9866 76.048 67.7506C77.266 70.5092 78.4525 73.2923 80.1737 75.5874C81.0786 76.7935 84.5728 77.4414 86.161 78.1119C87.2746 78.5808 89.0988 79.0709 90.153 79.7045C92.1667 80.9174 94.1177 82.3617 96.008 83.6896C96.9518 84.3526 99.8541 85.8091 99.9993 87.0097C95.3193 86.8818 91.7453 87.3174 88.6896 88.6031C87.8215 88.9686 86.4358 88.9788 86.294 90.0644C86.7713 90.5633 86.8457 91.3093 87.2248 91.9232C87.9538 93.1007 89.186 94.6811 90.2853 95.5088C91.4869 96.414 92.7239 97.3812 94.0114 98.1646C96.3019 99.5578 98.8578 100.354 101.063 101.75C102.363 102.574 103.762 103.61 105.029 104.539C105.656 104.998 105.636 105.712 107 106V105.868C106.319 105.327 106.355 104.58 105.962 104.011V104.011ZM40.5224 36.4124C39.5466 36.394 38.8081 36.5192 38.1261 36.6771V36.7765H38.2612C38.7269 37.4571 39.5486 38.3624 40.1235 39.1846L41.4546 41.9806L41.5862 41.8533C42.4107 41.2727 42.7885 40.3484 42.7837 38.9327C42.4543 38.5863 42.4045 38.1527 42.1195 37.7389C41.739 37.1883 41.0018 36.8759 40.5224 36.4124V36.4124Z" fill="#00618A"/>
</svg>
