<svg width="128" height="128" viewBox="0 0 128 128" fill="none" xmlns="http://www.w3.org/2000/svg">
<path d="M101.759 38.3852L67.9651 18.9039C65.8339 17.6987 63.0589 17.6987 60.9108 18.9039L26.7559 38.3852C24.5565 39.6413 23 42.0022 23 44.5274V83.4383C23 85.9635 24.5971 88.3252 26.7965 89.5882L35.8204 94.6767C40.1334 96.7857 41.6577 96.7857 43.6203 96.7857C50.0064 96.7857 53.6542 92.9519 53.6542 86.2648V47.85C53.6542 47.3076 53.3699 46.5003 52.8334 46.5003H48.5242C47.9786 46.5003 46.757 47.3076 46.757 47.8493V86.2641C46.757 89.2283 44.0564 92.1781 39.0092 89.6726L29.6849 84.3369C29.36 84.1619 29.1308 83.8096 29.1308 83.4383V44.5274C29.1308 44.1607 29.5562 43.7925 29.8834 43.6045L63.928 24.1567C64.246 23.9779 64.7135 23.9779 65.0307 24.1567L98.6599 43.6C98.9818 43.7925 98.8684 44.1493 98.8684 44.5274V83.4383C98.8684 83.8096 99.0086 84.171 98.6906 84.3498L64.9051 103.809C64.6154 103.982 64.256 103.982 63.9387 103.809L55.2735 98.6741C55.0122 98.5235 54.7018 98.4695 54.4512 98.6087C52.0403 99.9653 51.5958 100.146 49.3343 100.924C48.7779 101.116 47.9571 101.45 49.6485 102.392L60.989 109.052C62.0749 109.676 63.3088 110 64.5502 110C65.8086 110 67.0409 109.676 68.1268 109.052L101.758 89.5882C103.958 88.3161 105 85.9635 105 83.4383V44.5274C105 42.0022 103.958 39.6474 101.759 38.3852V38.3852ZM75.0432 77.2725C66.0569 77.2725 64.0774 74.8112 63.4176 70.3747C63.3409 69.8969 62.9325 69.3255 62.4428 69.3255H58.0508C57.5074 69.3255 57.0706 69.9798 57.0706 70.517C57.0706 76.1974 60.1813 83.08 75.0439 83.08C85.8028 83.08 91.9712 78.9296 91.9712 71.5844C91.9712 64.3017 87.0152 62.3904 76.5813 61.0194C66.0347 59.6354 64.9633 58.9362 64.9633 56.4833C64.9633 54.461 65.8707 51.7638 73.6798 51.7638C80.6575 51.7638 83.2294 53.2505 84.2877 57.9197C84.3782 58.3588 84.782 58.6737 85.238 58.6737H89.6476C89.9189 58.6737 90.1779 58.5649 90.368 58.3724C90.5519 58.1655 90.6492 57.9061 90.6247 57.6276C89.9419 49.587 84.5613 45.8399 73.6791 45.8399C63.9992 45.8399 58.2247 49.8982 58.2247 56.7009C58.2247 64.0795 63.9701 66.1186 73.2622 67.0308C84.3781 68.1127 85.2426 69.7257 85.2426 71.8964C85.2426 75.6663 82.194 77.2725 75.0432 77.2725Z" fill="#83CD29"/>
</svg>
