<svg width="128" height="128" viewBox="0 0 128 128" fill="none" xmlns="http://www.w3.org/2000/svg">
<path d="M98.3547 19.576C103.269 20.9333 106.667 25.3547 106.667 30.392V97.4907C106.667 102.573 103.197 107.011 98.2187 108.331L67.44 116.968L77.3333 96V29.3333L68.9387 10.9733L98.3547 19.576Z" fill="#E65100"/>
<path d="M77.3333 93.3333V103.805C77.3333 113.947 67.136 120.469 58.616 115.781L40.12 103.928C37.9813 102.685 36.824 100.029 37.5493 97.376C38.224 94.9067 40.5387 93.3333 42.9733 93.3333H77.3333Z" fill="#B71C1C"/>
<path d="M41.216 85.9413L32.1493 89.9467C28.5173 92.0853 24 89.3813 24 85.0693V39.744C24 35.648 26.1627 31.8773 29.6427 29.9013L61.1893 12.0693C68.4507 7.95467 77.3333 13.3707 77.3333 21.9147V30.1547L50.568 39.4507C47.4133 40.7013 45.3333 43.8293 45.3333 47.3147V78.6267C45.3333 81.648 43.76 84.44 41.216 85.9413Z" fill="#B71C1C"/>
</svg>
