<svg width="128" height="128" viewBox="0 0 128 128" fill="none" xmlns="http://www.w3.org/2000/svg">
<path d="M112 16H17V111H112V16Z" fill="#87BCF6"/>
<path d="M104 24H25V103H104V24Z" fill="#252653"/>
<path fill-rule="evenodd" clip-rule="evenodd" d="M87.7741 53.2417C80.6171 49.6333 68.2953 51.3813 68.2953 60.7957C68.2953 67.8065 73.1478 70.5659 79.0808 72.8821C87.5118 76.1721 79.3181 82.3901 69.026 75.9598C69.026 75.9598 68.6576 75.7788 68.4765 75.9598C68.2953 76.1409 68.2953 76.3219 68.2953 76.5092C68.2953 76.6903 68.2953 83.2641 68.2953 83.2641C71.8926 85.1058 74.578 86.0422 78.731 85.9985C92.1269 85.8612 94.0567 73.0381 86.931 68.1062C85.6382 67.2072 82.1784 65.4155 81.0855 64.9972C75.4211 62.8371 75.902 59.7656 77.7006 58.2173C79.6865 56.5005 85.1948 59.0976 87.5118 60.546C88.9169 61.4137 89.148 60.3337 89.1417 59.3848L89.123 54.8961C89.123 53.8285 88.7545 53.7411 87.7741 53.2417ZM46.406 64.4541V48.0101C46.406 47.9289 46.6933 47.648 46.7682 47.648C53.7378 47.2921 57.7035 48.6531 58.0595 56.0947C58.4654 64.6351 51.3022 64.8162 46.406 64.8162V64.4541ZM38 41.6173V85.8237H46.406V71.5773C56.7355 72.314 66.0533 68.6119 66.0533 56.6753C66.0533 51.862 64.5545 47.0175 61.001 44.0895C56.0361 39.9941 44.4325 40.9056 38 41.6173Z" fill="#87BCF6"/>
</svg>
