<svg width="128" height="128" viewBox="0 0 128 128" fill="none" xmlns="http://www.w3.org/2000/svg">
<path d="M64 33.039C30.26 33.039 2.90601 46.901 2.90601 64C2.90601 81.099 30.26 94.961 64 94.961C97.74 94.961 125.094 81.099 125.094 64C125.094 46.901 97.74 33.039 64 33.039ZM48.103 70.032C46.645 71.396 45.026 71.959 43.243 72.539C41.46 73.12 39.191 73 36.432 73H30.179L28.446 83H21.145L27.66 49H41.7C45.924 49 49.005 50.215 50.942 52.432C52.879 54.649 53.461 57.796 52.689 61.769C52.37 63.406 51.833 64.928 51.075 66.284C50.316 67.641 49.325 68.908 48.103 70.032ZM69.414 73L72.295 58.58C72.623 56.892 72.503 55.638 71.934 55.025C71.364 54.411 70.152 54 68.299 54H62.509L58.778 73H51.534L58.049 40H65.293L63.561 49H70.014C74.075 49 76.875 49.815 78.416 51.231C79.957 52.647 80.419 54.587 79.803 57.759L76.772 73H69.414ZM109.673 61.822C109.355 63.459 108.817 64.955 108.06 66.31C107.302 67.667 106.312 68.908 105.089 70.032C103.631 71.396 102.011 71.959 100.229 72.539C98.447 73.12 96.176 73 93.417 73H87.164L85.432 83H78.131L84.645 49H98.686C102.91 49 105.991 50.215 107.927 52.432C109.862 54.649 110.445 57.85 109.673 61.822ZM95.919 54H90.918L88.191 68H92.633C95.575 68 97.769 67.71 99.209 66.6C100.651 65.492 101.622 63.772 102.127 61.179C102.611 58.688 102.391 56.745 101.467 55.721C100.542 54.697 98.693 54 95.919 54ZM38.934 54H33.932L31.205 68H35.646C38.589 68 40.782 67.71 42.223 66.6C43.664 65.492 44.636 63.772 45.14 61.179C45.624 58.688 45.404 56.745 44.48 55.721C43.556 54.697 41.708 54 38.934 54Z" fill="#41577A"/>
</svg>
