<svg width="128" height="128" viewBox="0 0 128 128" fill="none" xmlns="http://www.w3.org/2000/svg">
<path fill-rule="evenodd" clip-rule="evenodd" d="M108.939 74.3051C108.597 72.0784 106.733 70.6201 104.565 70.5216C103.78 70.4858 102.983 70.5682 102.2 70.6682C101.255 70.7887 100.321 71.0024 99.378 71.1436C98.7262 71.2412 98.0653 71.2863 97.4143 71.3534L97.3983 71.2687C98.6136 68.9657 99.8799 66.6878 101.03 64.3519C101.911 62.5601 102.666 60.7035 103.445 58.8621C104.735 55.8112 105.766 52.6657 106.619 49.469C107.437 46.4082 108.136 43.3138 108.356 40.1385C108.444 38.8702 108.505 37.5966 108.498 36.3268C108.492 35.3141 108.383 34.3 108.282 33.2904C108.168 32.1335 107.82 31.0369 107.338 29.9816C106.702 28.5912 105.716 27.4503 104.679 26.3667C103.848 25.4991 102.935 24.7085 102.029 23.9187C100.738 22.7916 99.286 21.8918 97.7778 21.0929C96.0643 20.1848 94.2634 19.4743 92.3856 18.9943C91.2501 18.7036 90.0888 18.4876 88.9389 18.2572C88.5251 18.1732 88.1106 18 87.6969 18H79.9083C79.6269 18 79.3477 18.1458 79.0641 18.1778C77.1992 18.3861 75.3565 18.7387 73.5669 19.295C72.8976 19.5033 72.2862 19.3721 71.6504 19.3133C71.1629 19.2683 70.6837 19.137 70.1962 19.1126C68.339 19.0195 66.4795 18.8829 64.623 18.9028C62.8441 18.9211 61.0835 19.2149 59.3616 19.7055C57.9204 20.1161 56.5104 20.6175 55.219 21.3775C54.6661 21.7026 54.228 21.6415 53.6561 21.476C51.7342 20.9196 49.7987 20.3969 47.8464 19.9581C46.6295 19.6849 45.3784 19.5491 44.1357 19.4186C42.9447 19.2942 41.7446 19.2194 40.5475 19.1943C39.3778 19.1691 38.1997 19.1698 37.0353 19.2736C35.1804 19.4392 33.3604 19.8177 31.5914 20.4282C29.627 21.1058 27.826 22.088 26.2023 23.3776C24.5542 24.6863 23.2324 26.2843 22.1692 28.1089C21.0489 30.0342 20.2807 32.0954 19.8031 34.2603C19.5445 35.4332 19.381 36.6389 19.2038 37.8301C19.1483 38.201 19.7605 38.5719 19 38.9412V44.1257C19.7605 44.4707 19.1582 44.8148 19.2023 45.1605C19.308 45.9915 19.4016 46.8294 19.5415 47.6544C19.7628 48.96 20.0252 50.2619 20.2929 51.5592C20.6663 53.3716 21.055 55.1824 21.4687 56.9856C21.7699 58.2982 22.1129 59.6031 22.4718 60.9011C23.0202 62.8837 23.5602 64.8701 24.18 66.8305C24.7557 68.652 25.4151 70.4476 26.0692 72.2432C26.975 74.7271 28.0595 77.1309 29.36 79.4347C30.4849 81.4295 31.7702 83.2976 33.4943 84.8345C34.6305 85.8471 35.8953 86.6255 37.3677 87.0147C38.5245 87.3199 39.7003 87.3566 40.8844 87.1131C42.2572 86.8308 43.4725 86.2378 44.5532 85.3496C44.6772 85.2473 44.8133 85.1695 44.9601 85.3572C45.5191 86.0677 46.2675 86.5416 47.0501 86.9513C49.1621 88.0563 51.4635 88.3875 53.8014 88.5226C54.3672 88.5554 54.9391 88.4737 55.5095 88.4577C56.6207 88.4272 57.7006 88.2097 58.7631 87.9014C59.3198 87.7396 59.8636 87.5344 60.4302 87.3428C60.4598 87.948 60.4979 88.531 60.5154 89.114L60.5945 92.2931C60.6089 92.7769 60.6279 93.2622 60.6728 93.7438C60.7876 94.9853 60.9002 96.2277 61.0477 97.4654C61.1504 98.3186 61.2569 99.1786 61.4569 100.011C61.8592 101.692 62.4045 103.329 63.0981 104.916C63.7788 106.474 64.7576 107.789 66.0642 108.873C67.7526 110.274 69.7315 110.872 71.8686 110.982C72.7524 111.029 73.6612 110.985 74.5313 110.827C75.9101 110.576 77.2859 110.26 78.6283 109.854C81.3594 109.027 83.7201 107.598 85.4837 105.29C86.4877 103.974 87.3121 102.551 87.8414 100.98C88.278 99.6815 88.6894 98.3705 89.0164 97.0419C89.275 95.9949 89.4028 94.9151 89.5602 93.846C89.6644 93.1386 89.7268 92.4244 89.7922 91.7116C89.8987 90.554 90.0074 89.3971 90.0842 88.2372C90.1375 87.4298 90.1352 86.6186 90.1671 85.8097C90.177 85.5633 90.2166 85.3183 90.2394 85.0726C90.2607 84.8452 90.3748 84.7666 90.606 84.7704C91.4205 84.7826 92.2365 84.804 93.0488 84.7673C93.9592 84.7261 94.8779 84.6872 95.7738 84.5361C97.0492 84.3217 98.3185 84.0508 99.5689 83.7219C101.047 83.3342 102.402 82.6398 103.706 81.8484C105.226 80.9274 106.611 79.8468 107.735 78.4549C108.712 77.2408 109.175 75.8374 108.939 74.3051ZM106.344 75.0545C106.294 75.7527 105.976 76.351 105.513 76.8623C103.331 79.276 100.594 80.7404 97.463 81.4616C96.2735 81.7347 95.046 81.8767 93.8283 81.9896C92.7917 82.0858 91.7399 82.1018 90.6995 82.0636C89.9344 82.0346 89.1754 81.8591 88.3936 81.7462C88.3152 82.4635 88.2407 83.2106 88.1502 83.9561L87.7859 86.814C87.6756 87.7198 87.5897 88.6287 87.4764 89.5337C87.3653 90.412 87.2269 91.2873 87.1105 92.1657C87.0018 92.9837 86.9219 93.8056 86.801 94.6221C86.6147 95.8736 86.4367 97.1281 86.1933 98.3697C85.9013 99.854 85.4533 101.292 84.7225 102.63C83.8311 104.264 82.5671 105.509 80.9586 106.43C79.3006 107.381 77.4882 107.876 75.6508 108.289C74.3503 108.582 73.0102 108.63 71.693 108.511C69.4083 108.304 67.4583 107.323 65.9844 105.546C64.5774 103.85 63.6252 101.905 63.2845 99.7044C63.1217 98.6582 63.0046 97.6028 62.911 96.5482C62.8076 95.3753 62.7369 94.1986 62.6837 93.0226C62.616 91.5292 62.5665 90.0358 62.5338 88.5424C62.4935 86.7064 62.4806 84.8704 62.4547 83.0343L62.4502 82.9641C61.5193 83.5242 60.6043 84.1378 59.6339 84.6429C58.4977 85.2351 57.2633 85.5785 55.9849 85.6754C54.9825 85.7517 53.9672 85.8212 52.9693 85.7411C51.3334 85.609 49.699 85.3519 48.2342 84.5437C47.6403 84.2156 47.0204 83.8165 46.6112 83.2922C45.6302 82.0362 46.1002 80.4489 47.5794 79.685C48.6016 79.1562 49.7173 78.9357 50.8254 78.6785C51.7882 78.4549 52.7465 78.2008 53.6858 77.8933C54.6151 77.588 55.2015 76.8318 55.7803 76.09L56.6975 74.9065C56.3149 74.866 55.9544 74.8248 55.5939 74.7912C54.4995 74.6874 53.4553 74.3853 52.4567 73.9411C51.6019 73.5619 51.589 73.5207 50.9623 74.2029C49.9158 75.343 48.8982 76.5097 47.873 77.6689C47.1185 78.5213 46.3686 79.379 45.618 80.2337C44.8742 81.0792 44.1775 81.9728 43.3767 82.7596C42.1872 83.9279 40.7536 84.6307 39.0432 84.5514C37.9457 84.501 36.941 84.1149 36.0375 83.4838C34.1727 82.1804 32.9163 80.3573 31.7724 78.4427C30.3069 75.9893 29.1821 73.3757 28.2192 70.6903C27.553 68.8344 26.8837 66.977 26.3019 65.0944C25.6699 63.0485 25.1155 60.9767 24.5702 58.9056C24.158 57.3428 23.7921 55.767 23.443 54.1881C23.0468 52.3925 22.6658 50.5938 22.3296 48.786C22.103 47.5658 21.9714 46.3281 21.7881 45.0995C21.541 43.4435 21.4953 41.7723 21.5851 40.1095C21.6649 38.6115 21.8794 37.1174 22.0923 35.6293C22.3874 33.5704 23.0635 31.6276 24.0363 29.7931C24.6318 28.669 25.371 27.6472 26.2259 26.6979C27.629 25.1396 29.3273 24.0133 31.2165 23.1678C32.5368 22.5771 33.9316 22.2215 35.353 21.9437C37.4628 21.5317 39.5915 21.5477 41.721 21.5919C42.6519 21.611 43.579 21.7812 44.5091 21.8735C46.5116 22.0735 48.4746 22.4962 50.4124 23.0182C51.8247 23.3982 53.2081 23.8904 54.609 24.3178C54.7497 24.3605 54.9558 24.3567 55.0707 24.2811C56.969 23.038 59.0437 22.2177 61.25 21.7484C62.0874 21.5706 62.9514 21.4927 63.8077 21.4378C64.8489 21.3714 65.8984 21.3104 66.9373 21.3706C68.1861 21.4424 69.4288 21.6271 70.67 21.798C71.2724 21.8804 71.8603 22.0903 72.4641 22.1475C72.7531 22.175 73.0596 21.9628 73.3654 21.8918C74.9237 21.5309 76.4752 21.1287 78.0472 20.8433C79.2177 20.6312 80.4133 20.5312 81.6035 20.4625C82.9306 20.3862 84.2677 20.3305 85.594 20.3946C87.271 20.4755 88.9358 20.7151 90.5793 21.099C92.6153 21.5744 94.5684 22.265 96.4248 23.2235C97.812 23.9393 99.1308 24.7695 100.318 25.7906C101.096 26.4606 101.892 27.1222 102.595 27.8685C103.462 28.7888 104.347 29.7099 104.89 30.8889C105.3 31.7779 105.592 32.6982 105.672 33.6719C105.773 34.8822 105.894 36.0971 105.883 37.3089C105.872 38.4681 105.715 39.6265 105.603 40.7826C105.349 43.4183 104.778 45.9969 104.084 48.5411C103.511 50.6427 102.841 52.7214 102.115 54.7757C101.447 56.669 100.675 58.5279 99.8959 60.3792C99.3202 61.7482 98.7003 63.1027 98.0265 64.4259C96.7511 66.9335 95.4247 69.4151 93.8907 71.777C93.6261 72.1852 93.3751 72.6034 93.1165 73.0201C93.7858 73.4733 94.544 73.6328 95.3076 73.7152C96.0339 73.7946 96.7747 73.8419 97.5002 73.7877C98.6616 73.7015 99.8191 73.5352 100.974 73.3726C102.117 73.2124 103.238 72.8857 104.413 72.972C105.585 73.0574 106.424 73.9518 106.344 75.0545ZM89.6028 72.4958C89.1047 71.8502 88.5966 71.2123 88.1091 70.559C87.344 69.5334 86.7942 68.388 86.242 67.2372C85.7188 66.1467 85.0769 65.1143 84.5255 64.036C83.5634 62.1549 82.5838 60.28 81.6978 58.3623C80.5836 55.9532 79.7052 53.4586 79.4284 50.79C79.3112 49.6606 79.2816 48.5327 79.509 47.414C79.8733 45.6275 80.8034 44.2303 82.3671 43.2718C83.8174 42.3828 85.4336 42.0959 87.0892 42.0058C88.1167 41.9501 89.1488 41.9959 90.215 41.9959L90.1793 41.8151C89.5161 40.4239 88.8963 39.0091 88.1707 37.6508C87.147 35.7339 85.8374 34.0054 84.3787 32.4029C83.298 31.2163 82.1275 30.1151 80.8452 29.1421C79.5843 28.1844 78.2556 27.329 76.838 26.6292C75.1473 25.7951 73.3867 25.1503 71.5393 24.739C69.7642 24.3437 67.9777 24.1018 66.157 24.082C64.604 24.0652 63.0609 24.1354 61.5482 24.4872C59.265 25.0175 57.1766 25.9607 55.3597 27.4885C54.3451 28.3416 53.4599 29.2993 52.6849 30.3654C51.7753 31.6192 51.0414 32.9729 50.4139 34.3923C49.553 36.3398 48.9621 38.3666 48.5582 40.4499C48.3559 41.4884 48.1977 42.5362 48.0365 43.5832C47.9802 43.9495 47.9757 44.3242 47.9429 44.7439C48.2236 44.5974 48.4259 44.4844 48.6328 44.3837L49.3058 44.0807C51.5821 43.036 53.9405 42.3637 56.4754 42.4408C57.5523 42.4736 58.5828 42.6873 59.5404 43.1604C61.377 44.0693 62.4517 45.6146 62.9187 47.5704C63.2411 48.9204 63.4617 50.297 63.6762 51.6698C63.8442 52.742 64.0161 53.8256 64.0359 54.9069C64.064 56.4873 63.9842 58.0708 63.8982 59.6504C63.8252 60.9965 63.5453 62.3213 63.0768 63.5774C62.225 65.8613 61.2759 68.1079 60.3891 70.3789C60.0963 71.1291 59.8712 71.9059 59.5944 72.7308C60.0218 72.7308 60.3686 72.7278 60.7154 72.7324C60.8508 72.7347 60.9892 72.7385 61.12 72.7698C62.1391 73.0109 63.0229 73.4741 63.7476 74.2609C64.7143 75.3078 65.2216 76.5296 65.2474 77.9436C65.2619 78.7273 65.1797 79.5133 65.1835 80.297C65.1995 83.9493 65.2269 87.6015 65.2573 91.253C65.2626 91.8497 65.2923 92.4472 65.3349 93.0432C65.4239 94.2909 65.5136 95.5394 65.6353 96.784C65.7205 97.6669 65.8391 98.5483 65.9783 99.4251C66.1753 100.667 66.7388 101.773 67.3784 102.83C67.9291 103.739 68.6447 104.511 69.5878 105.044C71.1902 105.949 72.9159 106.024 74.6552 105.691C75.8303 105.466 76.984 105.104 78.1248 104.731C79.2496 104.364 80.2657 103.763 81.119 102.935C81.9184 102.157 82.4857 101.209 82.8683 100.163C83.6105 98.1339 83.8418 95.9972 84.149 93.8773C84.2639 93.0837 84.3635 92.2878 84.4684 91.4926C84.5878 90.5876 84.7088 89.6833 84.8244 88.779C84.9096 88.1052 84.9871 87.4298 85.0693 86.756C85.1864 85.7884 85.3104 84.8215 85.4221 83.8531C85.5081 83.1045 85.5811 82.3529 85.6572 81.6027C85.7553 80.6443 85.861 79.6858 85.9454 78.7258C86.0108 77.997 85.9842 77.2553 86.1127 76.5403C86.3492 75.2292 86.9668 74.1136 88.1251 73.3924C88.6096 73.091 89.1564 72.8926 89.6941 72.6377L89.6028 72.4958ZM45.7982 67.1144C45.2195 65.7392 44.8719 64.3061 44.7685 62.8242C44.6711 61.4315 44.8362 60.0442 44.9784 58.6576C45.1168 57.3145 45.2316 55.9654 45.2719 54.6162C45.3389 52.3986 45.1898 50.1841 45.0841 47.968C45.0202 46.6486 45.1731 45.3131 45.2902 43.9907C45.3959 42.7995 45.5275 41.6052 45.7518 40.4315C46.1283 38.462 46.628 36.5206 47.3383 34.6388C48.0129 32.8547 48.7879 31.1171 49.8823 29.5527C50.6322 28.4798 51.4832 27.477 52.3008 26.4285L52.0582 26.3423C49.3979 25.4945 46.6941 24.8321 43.9136 24.5429C42.5987 24.4063 41.2791 24.3262 39.9604 24.2476C39.5558 24.2231 39.1451 24.2781 38.7389 24.317C37.7335 24.4132 36.7159 24.4513 35.7265 24.6406C34.0426 24.9618 32.4273 25.5021 30.9313 26.382C29.5882 27.1718 28.4603 28.1928 27.5157 29.4176C26.4723 30.7698 25.7703 32.2991 25.2661 33.9299C24.6706 35.8537 24.3869 37.8332 24.3101 39.831C24.2431 41.5823 24.2097 43.3436 24.5108 45.088C24.7352 46.3868 24.885 47.6994 25.1322 48.9928C25.4691 50.7564 25.8304 52.5161 26.2479 54.2613C26.8449 56.7598 27.4412 59.262 28.1485 61.7299C28.8254 64.0947 29.5889 66.4383 30.4164 68.7535C31.0933 70.643 31.8759 72.4973 32.7003 74.3273C33.2372 75.5192 33.8875 76.6662 34.5689 77.7826C35.2937 78.9677 36.1181 80.0925 37.2369 80.9526C38.6484 82.0385 39.7413 82.2071 41.1757 81.0159C41.7902 80.5054 42.3097 79.875 42.8443 79.2745C43.6938 78.3206 44.5137 77.3408 45.3594 76.3838C46.4363 75.1644 47.5269 73.9579 48.6092 72.7446C48.8381 72.4882 49.0579 72.2241 49.2807 71.9647L48.9126 71.6404C47.5672 70.3438 46.5253 68.8405 45.7982 67.1144ZM86.6299 30.8141C87.5091 31.8489 88.3601 32.9142 89.1465 34.0222C90.6676 36.1658 91.8829 38.4803 92.7781 40.9566C93.1743 42.0478 93.4907 43.1497 93.3492 44.344C93.2511 45.1804 93.2595 46.0289 93.1857 46.8699C93.1241 47.5697 93.0138 48.2656 92.9233 48.9631C92.7879 50.0147 92.5917 51.0632 92.5332 52.1193C92.4776 53.1243 92.5354 54.14 92.5986 55.1473C92.6624 56.1706 92.8001 57.1894 92.8937 58.2112C92.9994 59.3696 93.1416 60.528 93.1743 61.6887C93.2009 62.6418 93.1165 63.601 93.0336 64.5526C92.9347 65.6988 92.645 66.8084 92.213 67.8729C91.9095 68.6223 91.5467 69.3487 91.2037 70.0989L91.3414 70.2454L91.5505 70.4079L91.7612 70.0294C93.5401 67.2151 95.1228 64.2924 96.4933 61.259C97.3747 59.3055 98.2007 57.3245 98.9931 55.3327C100.228 52.2315 101.206 49.0432 101.962 45.7916C102.301 44.3318 102.56 42.8498 102.79 41.3679C102.97 40.2095 103.12 39.0373 103.153 37.8683C103.189 36.6282 103.121 35.3782 103.006 34.1413C102.921 33.2072 102.692 32.2671 102.108 31.5078C101.171 30.2853 100.158 29.1162 98.9133 28.1913C97.8653 27.4122 96.8211 26.6132 95.6962 25.9577C93.9128 24.9199 91.9825 24.2285 89.9656 23.7576C87.9973 23.2975 86.0032 23.0991 83.9961 23.0571C82.8127 23.0319 81.624 23.1594 80.4429 23.2708C79.3728 23.3715 78.3096 23.5432 77.2319 23.6852C78.388 24.3376 79.528 24.9176 80.6034 25.6013C82.8645 27.0382 84.8905 28.7674 86.6299 30.8141ZM57.2542 71.0467C57.9851 68.7016 58.9806 66.4627 59.945 64.21C60.7268 62.3831 61.1542 60.4585 61.2964 58.4821C61.3672 57.5076 61.3474 56.5209 61.2995 55.5434C61.2455 54.4575 61.1588 53.3685 61.0013 52.2933C60.799 50.9189 60.5686 49.5438 60.2446 48.1946C59.8932 46.7348 59.0072 45.7184 57.4892 45.3437C56.5644 45.1155 55.6457 45.1247 54.711 45.2727C52.4278 45.6336 50.3379 46.4776 48.3909 47.7139C47.9992 47.9627 47.784 48.1634 47.8517 48.7273C47.9947 49.9216 48.0258 51.1349 48.0205 52.3406C48.0129 54.0469 47.9407 55.7532 47.876 57.4588C47.8547 58.0143 47.7749 58.5668 47.7155 59.12C47.6243 59.9671 47.4486 60.8134 47.4539 61.6589C47.4592 62.5304 47.5482 63.4225 47.7589 64.2664C48.4282 66.9427 49.8458 69.1328 52.1692 70.6781C53.5983 71.6281 55.1794 72.1074 56.915 72.1982C57.0329 71.7983 57.1378 71.4206 57.2542 71.0467ZM54.5269 48.087C54.2212 47.443 54.3961 46.9096 55.1049 46.6623C55.2776 46.6013 55.4555 46.5364 55.635 46.5189C55.8814 46.4944 56.1324 46.5127 56.3819 46.5127C57.2808 46.5173 58.1455 46.6432 58.8878 47.2171C59.3639 47.5849 59.4917 48.0733 59.1837 48.5747C58.7464 49.2859 58.0794 49.643 57.2603 49.7117C55.9696 49.8193 55.0638 49.2157 54.5269 48.087ZM90.3025 47.852C90.4059 46.9943 90.4888 46.1342 90.5946 45.2765C90.6371 44.9316 90.4561 44.8385 90.1679 44.8301C89.2613 44.8049 88.3548 44.7729 87.4482 44.7561C86.4261 44.7378 85.4313 44.9026 84.4852 45.2925C83.4356 45.726 82.6363 46.4204 82.31 47.5666C82.0667 48.4213 82.0013 49.2752 82.0872 50.1688C82.218 51.5309 82.5192 52.8526 82.9945 54.1186C83.6288 55.8135 84.2928 57.5076 85.086 59.1315C86.1606 61.33 87.3767 63.4583 88.5183 65.6232C88.8233 66.2009 89.0796 66.8038 89.3975 67.4784C90.0629 66.0643 90.3877 64.6488 90.4249 63.1882C90.4561 61.9596 90.358 60.7256 90.2865 59.4963C90.2417 58.7438 90.136 57.996 90.0629 57.2451C89.961 56.1989 89.8066 55.1534 89.7831 54.1049C89.7595 53.0388 89.8348 51.9667 89.926 50.9021C90.012 49.8811 90.1801 48.8685 90.3025 47.852ZM88.2574 47.0263C87.9205 47.9596 87.2003 48.4861 86.2663 48.6411C85.3955 48.7845 84.6327 48.4617 84.0654 47.765C83.6615 47.269 83.8159 46.6814 84.4213 46.3464C85.1164 45.9603 85.8807 45.8626 86.782 45.8038C87.0269 45.8488 87.3957 45.8862 87.7463 45.987C88.2551 46.1312 88.443 46.515 88.2574 47.0263ZM61.3177 75.7649C60.8196 75.3567 60.161 75.333 59.6871 75.781C59.0992 76.338 58.5821 76.9752 58.0649 77.6033C57.4679 78.329 56.9081 79.0837 56.1377 79.6461C55.0167 80.4634 53.7101 80.8022 52.3966 81.1227C51.3524 81.3776 50.3037 81.6142 49.2564 81.8591L49.2435 81.995C49.5545 82.1392 49.8557 82.3193 50.1797 82.4223C51.7768 82.9298 53.4013 83.1824 55.0889 83.0389C56.3073 82.9351 57.4679 82.6688 58.5676 82.1453C60.0811 81.4257 61.2455 80.2856 62.2357 78.9593C62.4015 78.738 62.4768 78.4106 62.4966 78.1252C62.5642 77.1172 62.0539 76.3678 61.3177 75.7649ZM100.676 76.1663C99.3909 76.3045 98.1041 76.451 96.815 76.525C96.1929 76.5609 95.5616 76.4418 94.9334 76.3907C93.8801 76.3052 92.8518 76.0702 91.9612 75.5055C91.4456 75.1797 91.0174 75.143 90.4698 75.3277C89.688 75.5917 89.0499 75.9931 88.8613 76.8432C88.7328 77.4178 88.6864 78.0131 88.6347 78.6014C88.6248 78.7052 88.7541 78.896 88.8529 78.9219C89.456 79.0814 90.0622 79.2699 90.679 79.3256C91.4365 79.3943 92.2076 79.3722 92.9705 79.334C93.7941 79.2928 94.6231 79.2394 95.4346 79.102C97.3473 78.78 99.1977 78.255 100.841 77.1668C101.434 76.7738 102.021 76.3724 102.609 75.9748L102.561 75.8909C101.933 75.9847 101.307 76.0992 100.676 76.1663Z" fill="#336791"/>
</svg>
