<svg width="128" height="128" viewBox="0 0 128 128" fill="none" xmlns="http://www.w3.org/2000/svg">
<path d="M110 18H19V109H110V18Z" fill="#D573F7"/>
<path d="M102 26H26V101H102V26Z" fill="#252653"/>
<path fill-rule="evenodd" clip-rule="evenodd" d="M40 42.3756V84.6069L48.2522 84.6188V71.3001C51.0653 71.3001 53.9954 71.2882 56.3523 70.7581C59.452 70.0552 61.6393 68.6257 63.581 66.5469C65.6163 64.3728 67.1954 61.3767 67.1954 56.9034C67.1954 46.563 60.5749 41.6608 50.188 42.0182L40 42.3756ZM48.2522 64.623L48.2639 48.8384C51.7145 48.7669 54.7206 48.8086 56.6974 50.5955C58.2472 51.9953 58.8204 53.5201 58.7619 57.0821C58.6508 63.9797 54.1124 64.623 48.2522 64.623ZM71.301 60.8466L71.3186 84.9583L79.559 85L79.5824 64.2715L79.559 63.3542C82.5359 60.6977 84.4718 59.8221 88.5657 59.9174C88.8932 59.9293 88.9985 59.9293 88.9985 59.5064V53.4129C89.0219 52.3348 88.7879 52.0489 87.5773 52.0906C84.3314 52.1978 83.3956 52.4658 81.1381 54.4076C80.6586 54.8246 79.2374 56.5579 79.2374 56.5579C79.2374 54.4493 78.7753 53.0257 78.2022 52.5969C77.8045 52.305 77.7051 52.3288 77.1319 52.3288H76.0441L71.4765 52.2633C70.9735 52.3467 70.9442 52.4658 70.9559 53.0555C71.0144 55.6883 71.301 57.5407 71.301 60.8466Z" fill="#D573F7"/>
</svg>
