<svg width="128" height="128" viewBox="0 0 128 128" fill="none" xmlns="http://www.w3.org/2000/svg">
<path d="M63.3776 20.0007C59.7567 20.0179 56.3004 20.3275 53.2576 20.8691C44.2954 22.4612 42.6693 25.7936 42.6693 31.94V40.0563H63.8467V42.7617H34.7209C28.5666 42.7617 23.1772 46.4813 21.4912 53.5601C19.5461 61.6711 19.4603 66.7335 21.4912 75.2034C22.9963 81.5085 26.5914 86 32.7466 86H40.0287V76.2702C40.0287 69.2406 46.0758 63.0406 53.2584 63.0406H74.4118C80.3002 63.0406 85 58.1645 85 52.219V31.9409C85 26.1687 80.1579 21.8333 74.4118 20.87C70.772 20.2611 66.9976 19.9843 63.3776 20.0007V20.0007ZM51.9248 26.5283C54.1118 26.5283 55.8991 28.3541 55.8991 30.5998C55.8991 32.8361 54.1126 34.6446 51.9248 34.6446C49.7293 34.6446 47.9515 32.8361 47.9515 30.5998C47.9506 28.3541 49.7293 26.5283 51.9248 26.5283V26.5283Z" fill="url(#paint0_linear_3_20)"/>
<path d="M87.8799 43.0009V52.3863C87.8799 59.6611 81.7107 65.7848 74.677 65.7848H53.5667C47.7844 65.7848 43 70.7343 43 76.5251V96.6507C43 102.377 47.9795 105.747 53.5667 107.389C60.2563 109.355 66.672 109.711 74.677 107.389C79.9972 105.848 85.2437 102.748 85.2437 96.6507V88.5953H64.1343V85.9096H95.8122C101.954 85.9096 104.244 81.626 106.381 75.1951C108.587 68.575 108.492 62.2082 106.381 53.7163C104.862 47.6011 101.963 43 95.8122 43H87.8799V43.0009ZM76.0062 93.965C78.1981 93.965 79.9724 95.7598 79.9724 97.9808C79.9724 100.208 78.1973 102.02 76.0062 102.02C73.8237 102.02 72.0409 100.208 72.0409 97.9808C72.0409 95.7598 73.8237 93.965 76.0062 93.965Z" fill="url(#paint1_linear_3_20)"/>
<path opacity="0.444" d="M97.309 119.597C97.309 123.14 82.493 126.013 64.218 126.013C45.942 126.013 31.126 123.14 31.126 119.597C31.126 116.053 45.941 113.18 64.218 113.18C82.493 113.18 97.309 116.052 97.309 119.597Z" fill="url(#paint2_radial_3_20)"/>
<defs>
<linearGradient id="paint0_linear_3_20" x1="17.877" y1="22.5385" x2="66.9512" y2="64.1559" gradientUnits="userSpaceOnUse">
<stop stop-color="#5A9FD4"/>
<stop offset="1" stop-color="#306998"/>
</linearGradient>
<linearGradient id="paint1_linear_3_20" x1="85.3438" y1="90.3408" x2="67.8632" y2="65.8266" gradientUnits="userSpaceOnUse">
<stop stop-color="#FFD43B"/>
<stop offset="1" stop-color="#FFE873"/>
</linearGradient>
<radialGradient id="paint2_radial_3_20" cx="0" cy="0" r="1" gradientUnits="userSpaceOnUse" gradientTransform="translate(64.0842 119.413) rotate(-90) scale(6.41832 28.2139)">
<stop stop-color="#B8B8B8" stop-opacity="0.498"/>
<stop offset="1" stop-color="#7F7F7F" stop-opacity="0"/>
</radialGradient>
</defs>
</svg>
