<svg width="128" height="128" viewBox="0 0 128 128" fill="none" xmlns="http://www.w3.org/2000/svg">
<path d="M64 72.6038C68.8276 72.6038 72.7412 68.6903 72.7412 63.8626C72.7412 59.035 68.8276 55.1214 64 55.1214C59.1724 55.1214 55.2588 59.035 55.2588 63.8626C55.2588 68.6903 59.1724 72.6038 64 72.6038Z" fill="#61DAFB"/>
<path d="M97.2013 49.4473C95.5144 48.8339 93.7508 48.2204 91.9105 47.6837C92.3706 45.8435 92.754 44.0032 93.0607 42.2396C94.6709 32.1182 92.9073 24.9872 88 22.2268C86.5431 21.3834 84.9329 21 83.0927 21C77.7252 21 70.901 24.9872 64 31.6581C57.099 24.9872 50.2748 21 44.9073 21C43.0671 21 41.4569 21.3834 40 22.2268C35.0927 25.0639 33.3291 32.1949 34.9393 42.2396C35.246 44.0032 35.6294 45.8435 36.0895 47.6837C34.2492 48.2204 32.4856 48.7572 30.7987 49.4473C21.2141 53.1278 16 58.1885 16 63.8626C16 69.5367 21.2907 74.5974 30.7987 78.278C32.4856 78.8914 34.2492 79.5048 36.0895 80.0415C35.6294 81.8818 35.246 83.722 34.9393 85.4856C33.3291 95.607 35.0927 102.738 40 105.498C41.4569 106.342 43.0671 106.725 44.9073 106.725C50.3514 106.725 57.1757 102.738 64 96.0671C70.901 102.738 77.7252 106.725 83.0927 106.725C84.9329 106.725 86.5431 106.342 88 105.498C92.9073 102.661 94.6709 95.5304 93.0607 85.4856C92.754 83.722 92.3706 81.8818 91.9105 80.0415C93.7508 79.5048 95.5144 78.9681 97.2013 78.278C106.786 74.5974 112 69.5367 112 63.8626C112 58.1885 106.786 53.1278 97.2013 49.4473ZM85.853 26.0607C88.9968 27.901 90.0703 33.5751 88.7668 41.6262C88.5367 43.2364 88.1534 44.9233 87.6933 46.6869C83.7061 45.7668 79.4888 45.1534 75.0415 44.77C72.4345 41.0895 69.7508 37.7923 67.0671 34.8019C72.7412 29.2045 78.492 25.3706 83.1693 25.3706C84.1661 25.3706 85.0863 25.6006 85.853 26.0607V26.0607ZM77.2652 71.5304C75.885 73.984 74.2748 76.4377 72.5879 78.8914C69.7508 79.1214 66.9137 79.1981 64 79.1981C61.0096 79.1981 58.1725 79.1214 55.4121 78.8914C53.7252 76.4377 52.1917 73.984 50.8115 71.5304C49.3546 69 47.9744 66.393 46.7476 63.8626C47.9744 61.3323 49.3546 58.7252 50.8115 56.1949C52.1917 53.7412 53.8019 51.2875 55.4888 48.8339C58.3259 48.6038 61.1629 48.5272 64.0767 48.5272C67.0671 48.5272 69.9042 48.6038 72.6645 48.8339C74.3514 51.2875 75.885 53.7412 77.2652 56.1949C78.722 58.7252 80.1022 61.3323 81.3291 63.8626C80.0256 66.393 78.722 68.9233 77.2652 71.5304ZM83.6294 69C84.7796 71.6837 85.6997 74.2907 86.5431 76.8978C83.9361 77.5112 81.1757 77.9712 78.262 78.3546C79.1821 76.8978 80.1789 75.3642 81.0224 73.754C81.9425 72.1438 82.7859 70.5335 83.6294 69ZM64 89.7796C62.1597 87.7859 60.3962 85.639 58.7093 83.4153C60.4728 83.492 62.2364 83.5687 64 83.5687C65.7636 83.5687 67.5272 83.492 69.2907 83.4153C67.6038 85.639 65.8403 87.7859 64 89.7796ZM49.738 78.278C46.8243 77.8946 44.0639 77.4345 41.4569 76.8211C42.3003 74.2907 43.2204 71.607 44.3706 68.9233C45.2141 70.4569 46.0575 72.0671 46.9776 73.6006C47.8978 75.2875 48.8179 76.7444 49.738 78.278V78.278ZM44.3706 58.7252C43.2204 56.0415 42.3003 53.4345 41.4569 50.8275C44.0639 50.2141 46.8243 49.754 49.738 49.3706C48.8179 50.8275 47.8211 52.361 46.9776 53.9712C46.0575 55.5815 45.2141 57.1917 44.3706 58.7252V58.7252ZM64 37.9457C65.8403 39.9393 67.6038 42.0863 69.2907 44.3099C67.5272 44.2332 65.7636 44.1565 64 44.1565C62.2364 44.1565 60.4728 44.2332 58.7093 44.3099C60.3962 42.0863 62.1597 39.9393 64 37.9457V37.9457ZM81.0224 54.0479L78.262 49.4473C81.1757 49.8307 83.9361 50.2907 86.5431 50.9042C85.6997 53.4345 84.7796 56.1182 83.6294 58.8019C82.7859 57.1917 81.9425 55.5815 81.0224 54.0479V54.0479ZM39.2332 41.6262C37.9297 33.5751 39.0032 27.901 42.147 26.0607C42.9137 25.6006 43.8339 25.3706 44.8307 25.3706C49.4313 25.3706 55.1821 29.1278 60.9329 34.8019C58.2492 37.7157 55.5655 41.0895 52.9585 44.77C48.5112 45.1534 44.2939 45.8435 40.3067 46.6869C39.8466 44.9233 39.5399 43.2364 39.2332 41.6262ZM20.2939 63.8626C20.2939 60.2588 24.6645 56.4249 32.3323 53.5879C33.8658 52.9744 35.5527 52.4377 37.2396 51.9776C38.4665 55.8115 40 59.8754 41.8403 63.9393C40 68.0032 38.3898 71.9904 37.2396 75.8243C26.6581 72.7572 20.2939 68.1566 20.2939 63.8626V63.8626ZM42.147 101.665C39.0032 99.8243 37.9297 94.1502 39.2332 86.099C39.4633 84.4888 39.8466 82.8019 40.3067 81.0383C44.2939 81.9585 48.5112 82.5719 52.9585 82.9553C55.5655 86.6358 58.2492 89.9329 60.9329 92.9233C55.2588 98.5208 49.508 102.355 44.8307 102.355C43.8339 102.355 42.9137 102.125 42.147 101.665ZM88.7668 86.099C90.0703 94.1502 88.9968 99.8243 85.853 101.665C85.0863 102.125 84.1661 102.355 83.1693 102.355C78.5687 102.355 72.8179 98.5974 67.0671 92.9233C69.7508 90.0096 72.4345 86.6358 75.0415 82.9553C79.4888 82.5719 83.7061 81.8818 87.6933 81.0383C88.1534 82.8019 88.4601 84.4888 88.7668 86.099V86.099ZM95.6677 74.1374C94.1342 74.7508 92.4473 75.2875 90.7604 75.7476C89.5335 71.9137 88 67.8498 86.1597 63.7859C88 59.722 89.6102 55.7348 90.7604 51.901C101.342 54.9681 107.706 59.5687 107.706 63.8626C107.706 67.4665 103.259 71.3003 95.6677 74.1374V74.1374Z" fill="#61DAFB"/>
</svg>
