<svg width="128" height="128" viewBox="0 0 128 128" fill="none" xmlns="http://www.w3.org/2000/svg">
<path d="M110 18H18V110H110V18Z" fill="#FF2BC2"/>
<path d="M103 26H25V102H103V26Z" fill="#2E001E"/>
<path fill-rule="evenodd" clip-rule="evenodd" d="M35.6668 42.9678C35.9688 43.6307 36.419 44.4429 36.5848 44.7833C37.0468 45.7149 37.4969 46.5808 37.953 47.5005L45.386 62.4185C45.6051 62.8544 46.0138 63.3441 45.8065 63.8159L35.3766 83.8936C35.1278 84.3893 34.577 84.9686 35.5779 84.9686H41.7613C42.6378 84.9686 42.6497 84.5028 43.2064 83.3084L50.2841 68.3546C50.7698 68.7846 56.5504 81.4392 57.9481 84.3296C58.191 84.8312 58.2502 84.9686 58.9609 84.9686C59.9619 84.9686 65.4641 85.088 65.9912 84.8611C66.1038 84.2758 65.1028 82.6634 64.8067 82.0961L62.0585 76.781C59.8849 72.5648 57.3973 67.4469 55.1941 63.4397C54.7439 62.6215 54.9157 62.6633 55.9285 60.7702C56.4201 59.8505 56.8287 59.0085 57.3203 58.0888C57.7705 57.2348 58.2265 56.3569 58.6766 55.4671L62.8107 47.4468C63.1957 46.7122 65.0258 43.4336 65.3338 42.3407C65.4345 41.9764 64.8363 42.0003 64.4098 42.0003L58.9491 42.0063C58.9195 42.0063 58.8898 42.0063 58.8602 42.0063C58.262 42.0063 58.1732 42.1257 57.96 42.5617L52.594 54.1055C52.3334 54.6907 50.906 58.0649 50.6454 58.2739C50.0827 56.8705 49.3957 55.5149 48.7857 54.1174L44.8648 45.7925C44.5094 45.1117 44.237 44.419 43.8994 43.7441C43.7158 43.3739 43.5559 43.0633 43.396 42.699C43.1709 42.1914 43.2005 42.0063 42.5312 42.0063L36.2709 42.0123C35.341 42.0182 35.2463 42.0481 35.6668 42.9678Z" fill="#FF3BC1"/>
<path fill-rule="evenodd" clip-rule="evenodd" d="M74.4002 69.8896C74.4002 67.2559 74.6761 64.7551 76.1721 62.5442C76.4848 62.073 77.012 61.3784 77.3676 61.0582C79.1947 59.4333 82.2541 58.2131 85.5158 59.2581L85.5281 79.2647C79.1456 81.0769 74.4002 77.1988 74.4002 69.8896ZM85.5281 52.8913L82.9285 52.8429C77.944 52.8429 73.7748 55.2109 71.5125 57.5546C69.1827 59.9709 67 64.3081 67 69.0983C67 74.3416 67.981 78.1593 70.8564 81.4816C72.892 83.8435 76.8526 86 81.6287 86C84.1241 86 85.9389 85.8671 88.379 85.2208C89.5685 84.9006 92.2661 84.0368 92.9773 83.4388C93.0632 82.9918 92.8792 81.6991 92.8547 81.1252C92.7689 78.7452 92.8241 75.5678 92.8302 73.1395L92.8363 42.7853C92.8425 42.1812 92.8731 42 92.2294 42H86.1289C85.2828 42 85.5281 42.5135 85.5281 44.2713V52.8913Z" fill="#FE31C0"/>
</svg>
